<?xml version="1.0" encoding="UTF-8" standalone="no"?>
<svg
   xmlns:dc="http://purl.org/dc/elements/1.1/"
   xmlns:cc="http://creativecommons.org/ns#"
   xmlns:rdf="http://www.w3.org/1999/02/22-rdf-syntax-ns#"
   xmlns:svg="http://www.w3.org/2000/svg"
   xmlns="http://www.w3.org/2000/svg"
   xmlns:sodipodi="http://sodipodi.sourceforge.net/DTD/sodipodi-0.dtd"
   xmlns:inkscape="http://www.inkscape.org/namespaces/inkscape"
   viewBox="0 0 403.60001 490"
   xml:space="preserve"
   version="1.1"
   id="svg1942"
   sodipodi:docname="arrow-bottom.svg"
   width="403.60001"
   height="490"
   inkscape:version="1.0.2 (e86c870879, 2021-01-15)"><metadata
     id="metadata1948"><rdf:RDF><cc:Work
         rdf:about=""><dc:format>image/svg+xml</dc:format><dc:type
           rdf:resource="http://purl.org/dc/dcmitype/StillImage" /></cc:Work></rdf:RDF></metadata><defs
     id="defs1946" /><sodipodi:namedview
     pagecolor="#ffffff"
     bordercolor="#666666"
     borderopacity="1"
     objecttolerance="10"
     gridtolerance="10"
     guidetolerance="10"
     inkscape:pageopacity="0"
     inkscape:pageshadow="2"
     inkscape:window-width="1280"
     inkscape:window-height="733"
     id="namedview1944"
     showgrid="false"
     inkscape:zoom="0.38968984"
     inkscape:cx="298.42318"
     inkscape:cy="313.72151"
     inkscape:window-x="0"
     inkscape:window-y="0"
     inkscape:window-maximized="1"
     inkscape:current-layer="svg1942" /><path
     d="m 394,311.3 c 12.8,-12.8 12.8,-33.4 0,-46.2 -6.4,-6.4 -14.7,-9.6 -23.1,-9.6 -8.4,0 -16.7,3.2 -23.1,9.6 L 234.5,378.5 V 32.7 C 234.5,14.7 219.9,0 201.8,0 183.7,0 169.1,14.6 169.1,32.7 V 378.5 L 55.8,265.1 c -12.8,-12.8 -33.4,-12.8 -46.2,0 -12.8,12.8 -12.8,33.4 0,46.2 l 169.1,169.1 c 6.1,6.2 14.4,9.6 23.1,9.6 8.7,0 17,-3.4 23.1,-9.6 z"
     id="path1940" /></svg>
