<?xml version="1.0" encoding="UTF-8" standalone="no"?>
<svg
   xmlns:dc="http://purl.org/dc/elements/1.1/"
   xmlns:cc="http://creativecommons.org/ns#"
   xmlns:rdf="http://www.w3.org/1999/02/22-rdf-syntax-ns#"
   xmlns:svg="http://www.w3.org/2000/svg"
   xmlns="http://www.w3.org/2000/svg"
   xmlns:sodipodi="http://sodipodi.sourceforge.net/DTD/sodipodi-0.dtd"
   xmlns:inkscape="http://www.inkscape.org/namespaces/inkscape"
   viewBox="0 0 490 403.60001"
   xml:space="preserve"
   version="1.1"
   id="svg2028"
   sodipodi:docname="arrow-left.svg"
   width="490"
   height="403.60001"
   inkscape:version="1.0.2 (e86c870879, 2021-01-15)"><metadata
     id="metadata2034"><rdf:RDF><cc:Work
         rdf:about=""><dc:format>image/svg+xml</dc:format><dc:type
           rdf:resource="http://purl.org/dc/dcmitype/StillImage" /></cc:Work></rdf:RDF></metadata><defs
     id="defs2032" /><sodipodi:namedview
     pagecolor="#ffffff"
     bordercolor="#666666"
     borderopacity="1"
     objecttolerance="10"
     gridtolerance="10"
     guidetolerance="10"
     inkscape:pageopacity="0"
     inkscape:pageshadow="2"
     inkscape:window-width="1280"
     inkscape:window-height="733"
     id="namedview2030"
     showgrid="false"
     inkscape:zoom="1.077551"
     inkscape:cx="201.8"
     inkscape:cy="245"
     inkscape:window-x="0"
     inkscape:window-y="0"
     inkscape:window-maximized="1"
     inkscape:current-layer="svg2028" /><path
     d="m 178.7,9.6 c 12.8,-12.8 33.4,-12.8 46.2,0 6.4,6.4 9.6,14.7 9.6,23.1 0,8.4 -3.2,16.7 -9.6,23.1 L 111.5,169.1 h 345.8 c 18,0 32.7,14.6 32.7,32.7 0,18.1 -14.6,32.7 -32.7,32.7 H 111.5 l 113.4,113.3 c 12.8,12.8 12.8,33.4 0,46.2 -12.8,12.8 -33.4,12.8 -46.2,0 L 9.6000001,224.9 C 3.4,218.8 0,210.5 0,201.8 c 0,-8.7 3.4,-17 9.6000001,-23.1 z"
     id="path2026"
     style="stroke-width:1" /></svg>
