<?xml version="1.0" encoding="UTF-8" standalone="no"?>
<svg
   xmlns:dc="http://purl.org/dc/elements/1.1/"
   xmlns:cc="http://creativecommons.org/ns#"
   xmlns:rdf="http://www.w3.org/1999/02/22-rdf-syntax-ns#"
   xmlns:svg="http://www.w3.org/2000/svg"
   xmlns="http://www.w3.org/2000/svg"
   xmlns:sodipodi="http://sodipodi.sourceforge.net/DTD/sodipodi-0.dtd"
   xmlns:inkscape="http://www.inkscape.org/namespaces/inkscape"
   viewBox="0 0 490 403.60001"
   xml:space="preserve"
   version="1.1"
   id="svg2071"
   sodipodi:docname="arrow-right.svg"
   width="490"
   height="403.60001"
   inkscape:version="1.0.2 (e86c870879, 2021-01-15)"><metadata
     id="metadata2077"><rdf:RDF><cc:Work
         rdf:about=""><dc:format>image/svg+xml</dc:format><dc:type
           rdf:resource="http://purl.org/dc/dcmitype/StillImage" /></cc:Work></rdf:RDF></metadata><defs
     id="defs2075" /><sodipodi:namedview
     pagecolor="#ffffff"
     bordercolor="#666666"
     borderopacity="1"
     objecttolerance="10"
     gridtolerance="10"
     guidetolerance="10"
     inkscape:pageopacity="0"
     inkscape:pageshadow="2"
     inkscape:window-width="1280"
     inkscape:window-height="733"
     id="namedview2073"
     showgrid="false"
     inkscape:zoom="1.077551"
     inkscape:cx="245"
     inkscape:cy="201.8"
     inkscape:window-x="0"
     inkscape:window-y="0"
     inkscape:window-maximized="1"
     inkscape:current-layer="svg2071" /><path
     d="m 311.3,394 c -12.8,12.8 -33.4,12.8 -46.2,0 -6.4,-6.4 -9.6,-14.7 -9.6,-23.1 0,-8.4 3.2,-16.7 9.6,-23.1 L 378.5,234.5 H 32.7 C 14.7,234.5 0,219.9 0,201.8 0,183.7 14.6,169.1 32.7,169.1 H 378.5 L 265.1,55.8 c -12.8,-12.8 -12.8,-33.4 0,-46.2 12.8,-12.8 33.4,-12.8 46.2,0 l 169.1,169.1 c 6.2,6.1 9.6,14.4 9.6,23.1 0,8.7 -3.4,17 -9.6,23.1 z"
     id="path2069" /></svg>
