<?xml version="1.0" encoding="UTF-8" standalone="no"?>
<svg
   xmlns:dc="http://purl.org/dc/elements/1.1/"
   xmlns:cc="http://creativecommons.org/ns#"
   xmlns:rdf="http://www.w3.org/1999/02/22-rdf-syntax-ns#"
   xmlns:svg="http://www.w3.org/2000/svg"
   xmlns="http://www.w3.org/2000/svg"
   xmlns:sodipodi="http://sodipodi.sourceforge.net/DTD/sodipodi-0.dtd"
   xmlns:inkscape="http://www.inkscape.org/namespaces/inkscape"
   viewBox="0 0 403.60001 490"
   xml:space="preserve"
   version="1.1"
   id="svg1985"
   sodipodi:docname="arrow-top.svg"
   width="403.60001"
   height="490"
   inkscape:version="1.0.2 (e86c870879, 2021-01-15)"><metadata
     id="metadata1991"><rdf:RDF><cc:Work
         rdf:about=""><dc:format>image/svg+xml</dc:format><dc:type
           rdf:resource="http://purl.org/dc/dcmitype/StillImage" /></cc:Work></rdf:RDF></metadata><defs
     id="defs1989" /><sodipodi:namedview
     pagecolor="#ffffff"
     bordercolor="#666666"
     borderopacity="1"
     objecttolerance="10"
     gridtolerance="10"
     guidetolerance="10"
     inkscape:pageopacity="0"
     inkscape:pageshadow="2"
     inkscape:window-width="714"
     inkscape:window-height="480"
     id="namedview1987"
     showgrid="false"
     inkscape:zoom="1.077551"
     inkscape:cx="201.8"
     inkscape:cy="245"
     inkscape:window-x="0"
     inkscape:window-y="0"
     inkscape:window-maximized="0"
     inkscape:current-layer="svg1985" /><path
     d="m 394,178.7 c 12.8,12.8 12.8,33.4 0,46.2 -6.4,6.4 -14.7,9.6 -23.1,9.6 -8.4,0 -16.7,-3.2 -23.1,-9.6 L 234.5,111.5 v 345.8 c 0,18 -14.6,32.7 -32.7,32.7 -18.1,0 -32.7,-14.6 -32.7,-32.7 V 111.5 L 55.8,224.9 C 43,237.7 22.4,237.7 9.6,224.9 -3.2,212.1 -3.2,191.5 9.6,178.7 L 178.7,9.6 C 184.8,3.4 193.1,0 201.8,0 c 8.7,0 17,3.4 23.1,9.6 z"
     id="path1983" /></svg>
