<?xml version="1.0" encoding="UTF-8" standalone="no"?>
<svg
   xmlns:dc="http://purl.org/dc/elements/1.1/"
   xmlns:cc="http://creativecommons.org/ns#"
   xmlns:rdf="http://www.w3.org/1999/02/22-rdf-syntax-ns#"
   xmlns:svg="http://www.w3.org/2000/svg"
   xmlns="http://www.w3.org/2000/svg"
   xmlns:sodipodi="http://sodipodi.sourceforge.net/DTD/sodipodi-0.dtd"
   xmlns:inkscape="http://www.inkscape.org/namespaces/inkscape"
   viewBox="0 0 338.72198 512"
   version="1.1"
   id="svg569"
   sodipodi:docname="door.svg"
   width="338.72198"
   height="512"
   inkscape:version="1.0.2 (e86c870879, 2021-01-15)">
  <metadata
     id="metadata575">
    <rdf:RDF>
      <cc:Work
         rdf:about="">
        <dc:format>image/svg+xml</dc:format>
        <dc:type
           rdf:resource="http://purl.org/dc/dcmitype/StillImage" />
        <dc:title></dc:title>
      </cc:Work>
    </rdf:RDF>
  </metadata>
  <defs
     id="defs573" />
  <sodipodi:namedview
     pagecolor="#ffffff"
     bordercolor="#666666"
     borderopacity="1"
     objecttolerance="10"
     gridtolerance="10"
     guidetolerance="10"
     inkscape:pageopacity="0"
     inkscape:pageshadow="2"
     inkscape:window-width="1280"
     inkscape:window-height="733"
     id="namedview571"
     showgrid="false"
     inkscape:zoom="1.0664062"
     inkscape:cx="169.361"
     inkscape:cy="256"
     inkscape:window-x="0"
     inkscape:window-y="0"
     inkscape:window-maximized="1"
     inkscape:current-layer="svg569" />
  <path
     d="m 238.863,52.833 v 15.544 h 84.314 v 375.246 h -9.183 V 117.138 H 298.45 v 326.485 h -59.587 v 15.544 h 99.859 V 52.833 Z M 0.005,355.486 H 15.549 V 371.03 H 0.005 Z"
     id="path563" />
  <path
     d="M 0,54.494 V 337.866 H 15.545 V 66.717 L 209.054,19.766 V 492.234 L 15.545,445.283 V 389.68 H 0 v 67.826 L 224.598,512 V 0 Z"
     id="path565" />
  <path
     d="m 169.123,254.446 c -12.685,0 -23.005,10.32 -23.005,23.005 0,12.685 10.32,23.005 23.005,23.005 12.685,10e-4 23.005,-10.32 23.005,-23.005 0,-12.685 -10.32,-23.005 -23.005,-23.005 z m -10e-4,30.466 c -4.113,0.001 -7.461,-3.347 -7.461,-7.461 0,-4.114 3.347,-7.461 7.461,-7.461 4.114,0 7.461,3.347 7.461,7.461 0,4.114 -3.347,7.461 -7.461,7.461 z M 298.454,83.98 h 15.544 v 15.544 h -15.544 z"
     id="path567" />
</svg>
