<?xml version="1.0" encoding="UTF-8" standalone="no"?>
<svg
   xmlns:dc="http://purl.org/dc/elements/1.1/"
   xmlns:cc="http://creativecommons.org/ns#"
   xmlns:rdf="http://www.w3.org/1999/02/22-rdf-syntax-ns#"
   xmlns:svg="http://www.w3.org/2000/svg"
   xmlns="http://www.w3.org/2000/svg"
   xmlns:sodipodi="http://sodipodi.sourceforge.net/DTD/sodipodi-0.dtd"
   xmlns:inkscape="http://www.inkscape.org/namespaces/inkscape"
   version="1.1"
   id="Layer_1"
   x="0px"
   y="0px"
   viewBox="0 0 300.00049 329.99939"
   xml:space="preserve"
   sodipodi:docname="double-chevron-left.svg"
   width="300.00049"
   height="329.99939"
   inkscape:version="1.0.2 (e86c870879, 2021-01-15)"><metadata
   id="metadata135"><rdf:RDF><cc:Work
       rdf:about=""><dc:format>image/svg+xml</dc:format><dc:type
         rdf:resource="http://purl.org/dc/dcmitype/StillImage" /><dc:title></dc:title></cc:Work></rdf:RDF></metadata><defs
   id="defs133" /><sodipodi:namedview
   pagecolor="#ffffff"
   bordercolor="#666666"
   borderopacity="1"
   objecttolerance="10"
   gridtolerance="10"
   guidetolerance="10"
   inkscape:pageopacity="0"
   inkscape:pageshadow="2"
   inkscape:window-width="1280"
   inkscape:window-height="773"
   id="namedview131"
   showgrid="false"
   inkscape:zoom="0.86577847"
   inkscape:cx="-21.717242"
   inkscape:cy="259.73652"
   inkscape:window-x="0"
   inkscape:window-y="0"
   inkscape:window-maximized="1"
   inkscape:current-layer="Layer_1" />
<g
   id="XMLID_106_"
   transform="translate(-15,-6.24992e-4)">
	<path
   id="XMLID_107_"
   d="M 51.213,165.004 190.607,25.607 c 5.857,-5.858 5.857,-15.355 -0.001,-21.213 -5.857,-5.858 -15.355,-5.858 -21.213,10e-4 l -150,150.004 C 16.58,157.211 15,161.026 15,165.004 c 0,3.979 1.581,7.794 4.394,10.607 l 150,149.996 c 2.928,2.929 6.767,4.393 10.606,4.393 3.839,0 7.678,-1.464 10.607,-4.394 5.857,-5.858 5.857,-15.355 -0.001,-21.213 z" />
	<path
   id="XMLID_108_"
   d="M 171.213,165.004 310.607,25.607 c 5.858,-5.858 5.858,-15.355 0,-21.213 -5.857,-5.858 -15.355,-5.858 -21.213,10e-4 l -150,150.004 c -2.813,2.813 -4.393,6.628 -4.393,10.606 0,3.979 1.581,7.794 4.394,10.607 l 150,149.996 c 2.927,2.928 6.766,4.392 10.605,4.392 3.839,0 7.678,-1.464 10.607,-4.394 5.858,-5.858 5.858,-15.355 0,-21.213 z" />
</g>
<g
   id="g100"
   transform="translate(-15,-6.24992e-4)">
</g>
<g
   id="g102"
   transform="translate(-15,-6.24992e-4)">
</g>
<g
   id="g104"
   transform="translate(-15,-6.24992e-4)">
</g>
<g
   id="g106"
   transform="translate(-15,-6.24992e-4)">
</g>
<g
   id="g108"
   transform="translate(-15,-6.24992e-4)">
</g>
<g
   id="g110"
   transform="translate(-15,-6.24992e-4)">
</g>
<g
   id="g112"
   transform="translate(-15,-6.24992e-4)">
</g>
<g
   id="g114"
   transform="translate(-15,-6.24992e-4)">
</g>
<g
   id="g116"
   transform="translate(-15,-6.24992e-4)">
</g>
<g
   id="g118"
   transform="translate(-15,-6.24992e-4)">
</g>
<g
   id="g120"
   transform="translate(-15,-6.24992e-4)">
</g>
<g
   id="g122"
   transform="translate(-15,-6.24992e-4)">
</g>
<g
   id="g124"
   transform="translate(-15,-6.24992e-4)">
</g>
<g
   id="g126"
   transform="translate(-15,-6.24992e-4)">
</g>
<g
   id="g128"
   transform="translate(-15,-6.24992e-4)">
</g>
</svg>
