<?xml version="1.0" encoding="UTF-8" standalone="no"?>
<svg
   xmlns:dc="http://purl.org/dc/elements/1.1/"
   xmlns:cc="http://creativecommons.org/ns#"
   xmlns:rdf="http://www.w3.org/1999/02/22-rdf-syntax-ns#"
   xmlns:svg="http://www.w3.org/2000/svg"
   xmlns="http://www.w3.org/2000/svg"
   xmlns:sodipodi="http://sodipodi.sourceforge.net/DTD/sodipodi-0.dtd"
   xmlns:inkscape="http://www.inkscape.org/namespaces/inkscape"
   viewBox="0 0 256.79999 503.90024"
   fill="#4267b2"
   xml:space="preserve"
   version="1.1"
   id="svg348"
   sodipodi:docname="facebook-colored.svg"
   width="256.79999"
   height="503.90024"
   inkscape:version="1.0.2 (e86c870879, 2021-01-15)"><metadata
     id="metadata354"><rdf:RDF><cc:Work
         rdf:about=""><dc:format>image/svg+xml</dc:format><dc:type
           rdf:resource="http://purl.org/dc/dcmitype/StillImage" /></cc:Work></rdf:RDF></metadata><defs
     id="defs352" /><sodipodi:namedview
     pagecolor="#ffffff"
     bordercolor="#666666"
     borderopacity="1"
     objecttolerance="10"
     gridtolerance="10"
     guidetolerance="10"
     inkscape:pageopacity="0"
     inkscape:pageshadow="2"
     inkscape:window-width="760"
     inkscape:window-height="480"
     id="namedview350"
     showgrid="false"
     inkscape:zoom="0.97460938"
     inkscape:cx="117"
     inkscape:cy="251.00025"
     inkscape:window-x="0"
     inkscape:window-y="0"
     inkscape:window-maximized="0"
     inkscape:current-layer="svg348" /><path
     d="m 169.3,503.50025 c -2.5,0.1 -4.1,0.3 -5.7,0.3 -34.2,0 -68.3,-0.1 -102.5,0.1 -4.8,0 -6.1,-1.3 -6.1,-6.1 0.1,-79.6 0.1,-159.3 0.1,-238.9 v -6.9 H 0 v -85 h 5.4 c 15,0 30,-0.1 45,0.1 3.8,0 4.8,-1.1 4.8,-4.8 -0.2,-22.3 -0.2,-44.7 0,-67 0.1,-15.6 2.6,-30.8 9.8,-44.9 10.3,-19.9 26.6,-32.8 47.2,-40.8 16.8,-6.6 34.5,-9 52.3,-9.3 29,-0.4 58,-0.2 87,-0.3 2.7,0 4.9,-0.1 4.9,3.7 -0.1,27.5 -0.1,55 -0.1,82.5 0,0.3 -0.1,0.6 -0.5,1.9 h -5.5 c -18,0 -36,-0.1 -54,0 -10.4,0 -18.8,4.2 -24.1,13.3 -1.6,2.7 -2.6,6.2 -2.6,9.4 -0.3,17 0,34 -0.2,51 0,4 1.2,5.1 5.1,5.1 25,-0.2 50,-0.1 75,-0.1 h 7.3 c -3.5,28.6 -6.9,56.6 -10.4,84.9 h -77.1 z"
     id="path346" /></svg>
