<?xml version="1.0" encoding="UTF-8" standalone="no"?>
<svg
   xmlns:dc="http://purl.org/dc/elements/1.1/"
   xmlns:cc="http://creativecommons.org/ns#"
   xmlns:rdf="http://www.w3.org/1999/02/22-rdf-syntax-ns#"
   xmlns:svg="http://www.w3.org/2000/svg"
   xmlns="http://www.w3.org/2000/svg"
   xmlns:sodipodi="http://sodipodi.sourceforge.net/DTD/sodipodi-0.dtd"
   xmlns:inkscape="http://www.inkscape.org/namespaces/inkscape"
   viewBox="0 0 17.000408 23.999449"
   version="1.1"
   id="svg1182"
   sodipodi:docname="foursquare.svg"
   width="17.000408"
   height="23.999449"
   inkscape:version="1.0.2 (e86c870879, 2021-01-15)">
  <metadata
     id="metadata1188">
    <rdf:RDF>
      <cc:Work
         rdf:about="">
        <dc:format>image/svg+xml</dc:format>
        <dc:type
           rdf:resource="http://purl.org/dc/dcmitype/StillImage" />
        <dc:title></dc:title>
      </cc:Work>
    </rdf:RDF>
  </metadata>
  <defs
     id="defs1186" />
  <sodipodi:namedview
     pagecolor="#ffffff"
     bordercolor="#666666"
     borderopacity="1"
     objecttolerance="10"
     gridtolerance="10"
     guidetolerance="10"
     inkscape:pageopacity="0"
     inkscape:pageshadow="2"
     inkscape:window-width="714"
     inkscape:window-height="480"
     id="namedview1184"
     showgrid="false"
     inkscape:zoom="22.75"
     inkscape:cx="8.5"
     inkscape:cy="12"
     inkscape:window-x="0"
     inkscape:window-y="0"
     inkscape:window-maximized="0"
     inkscape:current-layer="svg1182" />
  <path
     d="m 0,2.161 v 20.336 c 0,0.952 0.559,1.298 0.841,1.411 0.287,0.117 1.053,0.216 1.52,-0.333 5.954,-7.004 6.056,-7.121 6.056,-7.121 0.143,-0.159 0.157,-0.145 0.314,-0.145 h 3.852 c 1.621,0 1.875,-1.181 2.047,-1.861 L 16.875,3.056 C 17.267,1.069 16.773,0 14.925,0 H 2.305 C 0.573,0 0,1.327 0,2.161 Z M 2.668,3.418 C 2.668,3.057 2.982,2.64 3.435,2.64 h 10.117 c 0.378,0 0.72,0.361 0.624,0.82 L 14.173,3.459 13.647,6.257 c -0.055,0.305 -0.439,0.619 -0.78,0.619 H 7.95 c -0.555,0 -0.952,0.389 -0.952,0.952 V 8.437 C 6.998,9 7.395,9.403 7.95,9.403 h 4.176 c 0.383,0 0.767,0.431 0.684,0.853 a 376.73,376.73 0 0 0 -0.526,2.756 c -0.041,0.23 -0.314,0.633 -0.781,0.633 H 8.108 c -0.624,0 -0.794,0.084 -1.224,0.591 0,0 -0.411,0.534 -4.134,5.078 C 2.709,19.356 2.667,19.342 2.667,19.3 V 3.418 Z"
     id="path1180" />
</svg>
