<?xml version="1.0" encoding="UTF-8" standalone="no"?>
<svg
   xmlns:dc="http://purl.org/dc/elements/1.1/"
   xmlns:cc="http://creativecommons.org/ns#"
   xmlns:rdf="http://www.w3.org/1999/02/22-rdf-syntax-ns#"
   xmlns:svg="http://www.w3.org/2000/svg"
   xmlns="http://www.w3.org/2000/svg"
   xmlns:sodipodi="http://sodipodi.sourceforge.net/DTD/sodipodi-0.dtd"
   xmlns:inkscape="http://www.inkscape.org/namespaces/inkscape"
   version="1.1"
   id="Capa_1"
   x="0px"
   y="0px"
   viewBox="0 0 288.20001 269.68701"
   xml:space="preserve"
   sodipodi:docname="heart.svg"
   width="288.20001"
   height="269.68701"
   inkscape:version="1.0.2 (e86c870879, 2021-01-15)"><metadata
   id="metadata41"><rdf:RDF><cc:Work
       rdf:about=""><dc:format>image/svg+xml</dc:format><dc:type
         rdf:resource="http://purl.org/dc/dcmitype/StillImage" /></cc:Work></rdf:RDF></metadata><defs
   id="defs39" /><sodipodi:namedview
   pagecolor="#ffffff"
   bordercolor="#666666"
   borderopacity="1"
   objecttolerance="10"
   gridtolerance="10"
   guidetolerance="10"
   inkscape:pageopacity="0"
   inkscape:pageshadow="2"
   inkscape:window-width="714"
   inkscape:window-height="480"
   id="namedview37"
   showgrid="false"
   inkscape:zoom="1.8320674"
   inkscape:cx="144.0995"
   inkscape:cy="134.8435"
   inkscape:window-x="0"
   inkscape:window-y="0"
   inkscape:window-maximized="0"
   inkscape:current-layer="Capa_1" />
<g
   id="g4"
   transform="translate(0,-9.256)">
	<path
   d="m 203.325,9.256 c -22.523,0 -43.653,8.941 -59.226,24.104 C 128.527,18.196 107.397,9.256 84.874,9.256 38.074,9.256 0,47.33 0,94.129 c 0,37.746 13.758,71.201 43.299,105.288 23.655,27.295 87.03,70.171 89.717,71.983 L 144,278.809 v 0.134 l 0.1,-0.067 0.1,0.067 v -0.134 l 10.984,-7.409 c 2.687,-1.813 66.062,-44.688 89.717,-71.983 C 274.442,165.33 288.2,131.875 288.2,94.129 288.199,47.33 250.125,9.256 203.325,9.256 Z M 214.673,173.22 C 200.786,189.245 165.529,215.379 144.1,230.447 122.67,215.379 87.414,189.244 73.527,173.22 50.653,146.827 40,121.695 40,94.129 40,69.386 60.131,49.256 84.874,49.256 c 17.736,0 31.308,6.595 45.492,21.881 4.708,5.074 12.32,15.429 13.634,17.227 v 0.273 c 0,0 0.034,-0.047 0.1,-0.137 0.065,0.089 0.1,0.137 0.1,0.137 v -0.273 c 1.314,-1.798 8.925,-12.153 13.634,-17.227 14.185,-15.286 27.756,-21.881 45.492,-21.881 24.743,0 44.874,20.13 44.874,44.873 -10e-4,27.566 -10.654,52.698 -33.527,79.091 z"
   id="path2" />
</g>
<g
   id="g6"
   transform="translate(0,-9.256)">
</g>
<g
   id="g8"
   transform="translate(0,-9.256)">
</g>
<g
   id="g10"
   transform="translate(0,-9.256)">
</g>
<g
   id="g12"
   transform="translate(0,-9.256)">
</g>
<g
   id="g14"
   transform="translate(0,-9.256)">
</g>
<g
   id="g16"
   transform="translate(0,-9.256)">
</g>
<g
   id="g18"
   transform="translate(0,-9.256)">
</g>
<g
   id="g20"
   transform="translate(0,-9.256)">
</g>
<g
   id="g22"
   transform="translate(0,-9.256)">
</g>
<g
   id="g24"
   transform="translate(0,-9.256)">
</g>
<g
   id="g26"
   transform="translate(0,-9.256)">
</g>
<g
   id="g28"
   transform="translate(0,-9.256)">
</g>
<g
   id="g30"
   transform="translate(0,-9.256)">
</g>
<g
   id="g32"
   transform="translate(0,-9.256)">
</g>
<g
   id="g34"
   transform="translate(0,-9.256)">
</g>
</svg>
