<?xml version="1.0" encoding="UTF-8" standalone="no"?>
<svg
   xmlns:dc="http://purl.org/dc/elements/1.1/"
   xmlns:cc="http://creativecommons.org/ns#"
   xmlns:rdf="http://www.w3.org/1999/02/22-rdf-syntax-ns#"
   xmlns:svg="http://www.w3.org/2000/svg"
   xmlns="http://www.w3.org/2000/svg"
   xmlns:sodipodi="http://sodipodi.sourceforge.net/DTD/sodipodi-0.dtd"
   xmlns:inkscape="http://www.inkscape.org/namespaces/inkscape"
   fill="#000000"
   version="1.1"
   id="Layer_1"
   viewBox="0 0 512 395.314"
   xml:space="preserve"
   sodipodi:docname="house.svg"
   width="512"
   height="395.314"
   inkscape:version="1.0.2 (e86c870879, 2021-01-15)"><metadata
   id="metadata19"><rdf:RDF><cc:Work
       rdf:about=""><dc:format>image/svg+xml</dc:format><dc:type
         rdf:resource="http://purl.org/dc/dcmitype/StillImage" /></cc:Work></rdf:RDF></metadata><defs
   id="defs17" /><sodipodi:namedview
   pagecolor="#ffffff"
   bordercolor="#666666"
   borderopacity="1"
   objecttolerance="10"
   gridtolerance="10"
   guidetolerance="10"
   inkscape:pageopacity="0"
   inkscape:pageshadow="2"
   inkscape:window-width="1280"
   inkscape:window-height="773"
   id="namedview15"
   showgrid="false"
   inkscape:zoom="0.5790012"
   inkscape:cx="106.92915"
   inkscape:cy="308.35027"
   inkscape:window-x="0"
   inkscape:window-y="0"
   inkscape:window-maximized="1"
   inkscape:current-layer="Layer_1" />
<g
   id="g6"
   transform="translate(0,-58.343)">
	<g
   id="g4">
		<path
   d="m 464.421,422.31 v -42.275 c 17.564,-6.416 30.135,-23.289 30.135,-43.045 0,-25.259 -20.549,-45.808 -45.808,-45.808 -25.259,0 -45.808,20.549 -45.808,45.808 0,19.756 12.571,36.63 30.135,43.045 v 42.276 H 386.869 V 271.157 h 96.555 L 256,58.343 28.578,271.157 h 96.555 V 422.31 H 78.236 v -42.276 c 17.564,-6.416 30.135,-23.289 30.135,-43.045 0,-25.259 -20.549,-45.808 -45.808,-45.808 -25.259,0 -45.808,20.549 -45.808,45.808 0,19.756 12.571,36.63 30.135,43.045 V 422.31 H 0 v 31.347 H 125.133 200.308 311.692 386.867 512 V 422.31 Z M 62.562,351.451 c -7.974,0 -14.461,-6.488 -14.461,-14.461 0,-7.974 6.488,-14.461 14.461,-14.461 7.974,0 14.461,6.488 14.461,14.461 0,7.973 -6.487,14.461 -14.461,14.461 z m 217.783,70.86 h -48.69 v -50.159 c 0,-13.424 10.921,-24.345 24.345,-24.345 13.424,0 24.345,10.921 24.345,24.345 z m 75.175,0 h -43.828 v -50.159 c 0,-30.709 -24.984,-55.692 -55.692,-55.692 -30.708,0 -55.692,24.983 -55.692,55.692 v 50.159 H 156.48 v -159.89 l 7.467,-6.781 92.053,-83.604 92.053,83.604 7.467,6.781 z M 377.249,239.81 256,129.69 134.751,239.81 H 107.955 L 256,101.274 404.045,239.81 Z m 71.498,111.641 c -7.974,0 -14.461,-6.488 -14.461,-14.461 0,-7.974 6.488,-14.461 14.461,-14.461 7.974,0 14.461,6.488 14.461,14.461 0,7.973 -6.487,14.461 -14.461,14.461 z"
   id="path2" />
	</g>
</g>
<g
   id="g12"
   transform="translate(0,-58.343)">
	<g
   id="g10">
		<rect
   x="230.39999"
   y="252.17599"
   width="51.200001"
   height="31.347"
   id="rect8" />
	</g>
</g>
</svg>
