<?xml version="1.0" encoding="UTF-8" standalone="no"?>
<svg
   xmlns:dc="http://purl.org/dc/elements/1.1/"
   xmlns:cc="http://creativecommons.org/ns#"
   xmlns:rdf="http://www.w3.org/1999/02/22-rdf-syntax-ns#"
   xmlns:svg="http://www.w3.org/2000/svg"
   xmlns="http://www.w3.org/2000/svg"
   xmlns:sodipodi="http://sodipodi.sourceforge.net/DTD/sodipodi-0.dtd"
   xmlns:inkscape="http://www.inkscape.org/namespaces/inkscape"
   fill="#000000"
   version="1.1"
   id="Capa_1"
   width="800"
   height="543.28058"
   viewBox="0 0 749 508.64644"
   xml:space="preserve"
   sodipodi:docname="house-svgrepo-com (6).svg"
   inkscape:version="1.0.2 (e86c870879, 2021-01-15)"><metadata
   id="metadata11"><rdf:RDF><cc:Work
       rdf:about=""><dc:format>image/svg+xml</dc:format><dc:type
         rdf:resource="http://purl.org/dc/dcmitype/StillImage" /></cc:Work></rdf:RDF></metadata><defs
   id="defs9" /><sodipodi:namedview
   pagecolor="#ffffff"
   bordercolor="#666666"
   borderopacity="1"
   objecttolerance="10"
   gridtolerance="10"
   guidetolerance="10"
   inkscape:pageopacity="0"
   inkscape:pageshadow="2"
   inkscape:window-width="1280"
   inkscape:window-height="773"
   id="namedview7"
   showgrid="false"
   inkscape:zoom="0.71"
   inkscape:cx="400"
   inkscape:cy="271.64005"
   inkscape:window-x="0"
   inkscape:window-y="0"
   inkscape:window-maximized="1"
   inkscape:current-layer="Capa_1" />
<g
   id="g4"
   transform="translate(0,-120.177)">
	<path
   d="m 145.9,366.377 -28.6,-34.7 257.2,-211.5 257.2,211.5 -28.601,34.7 -228.6,-188 z M 645,485.778 h -74 v 71.5 H 179 v -71.5 H 104 L 0,628.677 h 41.5 c 1.9,0 3.8,0.102 5.7,0.102 92.1,0 184.1,0 276.2,0 4.899,0 9.8,0 14.6,0 h 85 c 0.9,0 1.7,0 2.6,0 92.102,0 184.102,0.1 276.2,0 1.9,0 3.8,0 5.7,-0.102 H 749 Z m -270.5,-264.001 166,137.5 v 125.1 42.9 4.6 h -332 v -5.1 -42.4 -125.6 z m -2.5,186.6 h -61.5 v 57.5 H 372 Z m 0,-65 h -61.5 v 57.5 H 372 Z m 8,57.5 h 61.5 v -57.5 H 380 Z m 0,65 h 61.5 v -57.5 H 380 Z"
   id="path2" />
</g>
</svg>
