<svg xmlns="http://www.w3.org/2000/svg" width="20" height="20" data-name="Layer 1"><path fill="#C13584" d="M10 7.52A2.48 2.48 0 1 0 12.48 10 2.48 2.48 0 0 0 10 7.52Zm9.93-2.45a6.53 6.53 0 0 0-.42-2.26A4 4 0 0 0 17.19.49a6.53 6.53 0 0 0-2.26-.42C13.64 0 13.26 0 10 0S6.36 0 5.07.07a6.53 6.53 0 0 0-2.26.42A4 4 0 0 0 .49 2.81a6.53 6.53 0 0 0-.42 2.26C0 6.36 0 6.74 0 10s0 3.64.07 4.93a6.86 6.86 0 0 0 .42 2.27 3.94 3.94 0 0 0 .91 1.4 3.89 3.89 0 0 0 1.41.91 6.53 6.53 0 0 0 2.26.42C6.36 20 6.74 20 10 20s3.64 0 4.93-.07a6.53 6.53 0 0 0 2.26-.42 3.89 3.89 0 0 0 1.41-.91 3.94 3.94 0 0 0 .91-1.4 6.6 6.6 0 0 0 .42-2.27C20 13.64 20 13.26 20 10s0-3.64-.07-4.93Zm-2.54 8a5.73 5.73 0 0 1-.39 1.8A3.86 3.86 0 0 1 14.87 17a5.73 5.73 0 0 1-1.81.35H6.94A5.73 5.73 0 0 1 5.13 17a3.51 3.51 0 0 1-1.31-.86A3.51 3.51 0 0 1 3 14.87a5.49 5.49 0 0 1-.34-1.81V6.94A5.49 5.49 0 0 1 3 5.13a3.51 3.51 0 0 1 .86-1.31A3.59 3.59 0 0 1 5.13 3a5.73 5.73 0 0 1 1.81-.35h6.12a5.73 5.73 0 0 1 1.81.35 3.51 3.51 0 0 1 1.31.86A3.51 3.51 0 0 1 17 5.13a5.73 5.73 0 0 1 .35 1.81V10c0 2.06.07 2.27.04 3.06zm-1.6-7.44a2.38 2.38 0 0 0-1.41-1.41A4 4 0 0 0 13 4H7a4 4 0 0 0-1.38.26 2.38 2.38 0 0 0-1.41 1.36A4.27 4.27 0 0 0 4 7v6a4.27 4.27 0 0 0 .26 1.38 2.38 2.38 0 0 0 1.41 1.41 4.27 4.27 0 0 0 1.33.26h6a4 4 0 0 0 1.38-.26 2.38 2.38 0 0 0 1.41-1.41 4 4 0 0 0 .26-1.38V7a3.78 3.78 0 0 0-.26-1.38ZM10 13.82A3.81 3.81 0 0 1 6.19 10 3.82 3.82 0 1 1 10 13.82Zm4-6.89a.9.9 0 0 1 0-1.79.9.9 0 0 1 0 1.79z"/></svg>
