<?xml version="1.0" ?>
<svg viewBox="0 0 135.467 135.467" xmlns="http://www.w3.org/2000/svg">
    <path d="M93.133 0h-50.8C18.957 0 0 18.957 0 42.333v50.8c0 23.377 18.957 42.334 42.333 42.334h50.8c23.377 0 42.334-18.957 42.334-42.334v-50.8C135.467 18.957 116.51 0 93.133 0zm29.634 93.133c0 16.341-13.293 29.634-29.634 29.634h-50.8c-16.34 0-29.633-13.293-29.633-29.634v-50.8c0-16.34 13.293-29.633 29.633-29.633h50.8c16.341 0 29.634 13.293 29.634 29.633z"/>
    <path d="M67.733 33.867c-18.703 0-33.866 15.163-33.866 33.866S49.03 101.6 67.733 101.6 101.6 86.436 101.6 67.733c0-18.703-15.164-33.866-33.867-33.866zm0 55.033c-11.667 0-21.166-9.5-21.166-21.167 0-11.675 9.5-21.166 21.166-21.166 11.667 0 21.167 9.49 21.167 21.166C88.9 79.4 79.4 88.9 67.733 88.9z"/>
    <circle r="17.056" cy="118.4" cx="393.6" transform="scale(.26458)"/>

</svg>
