<?xml version="1.0" encoding="UTF-8" standalone="no"?>
<svg
   xmlns:dc="http://purl.org/dc/elements/1.1/"
   xmlns:cc="http://creativecommons.org/ns#"
   xmlns:rdf="http://www.w3.org/1999/02/22-rdf-syntax-ns#"
   xmlns:svg="http://www.w3.org/2000/svg"
   xmlns="http://www.w3.org/2000/svg"
   xmlns:sodipodi="http://sodipodi.sourceforge.net/DTD/sodipodi-0.dtd"
   xmlns:inkscape="http://www.inkscape.org/namespaces/inkscape"
   id="Layer_1"
   version="1.1"
   viewBox="0 0 259.39999 259"
   xml:space="preserve"
   sodipodi:docname="linkedin-colored.svg"
   width="259.39999"
   height="259"
   inkscape:version="1.0.2 (e86c870879, 2021-01-15)"><metadata
     id="metadata363"><rdf:RDF><cc:Work
         rdf:about=""><dc:format>image/svg+xml</dc:format><dc:type
           rdf:resource="http://purl.org/dc/dcmitype/StillImage" /><dc:title></dc:title></cc:Work></rdf:RDF></metadata><defs
     id="defs361" /><sodipodi:namedview
     pagecolor="#ffffff"
     bordercolor="#666666"
     borderopacity="1"
     objecttolerance="10"
     gridtolerance="10"
     guidetolerance="10"
     inkscape:pageopacity="0"
     inkscape:pageshadow="2"
     inkscape:window-width="1280"
     inkscape:window-height="733"
     id="namedview359"
     showgrid="false"
     inkscape:zoom="1.0664062"
     inkscape:cx="129.7"
     inkscape:cy="68.277427"
     inkscape:window-x="0"
     inkscape:window-y="0"
     inkscape:window-maximized="1"
     inkscape:current-layer="Layer_1" /><style
     id="style353">.st0{fill:#007bb6}</style><g
     id="XMLID_184_"
     transform="translate(-126.3,-203)"><path
       fill="#007bb6"
       d="m 130.5,289 h 53.8 v 173 h -53.8 z m 27,-86 c 17.2,0 31.2,14 31.2,31.2 0,17.2 -14,31.2 -31.2,31.2 -17.3,0 -31.2,-14 -31.2,-31.2 0,-17.2 13.9,-31.2 31.2,-31.2"
       id="XMLID_195_" /><path
    fill="#007bb6"
       d="m 218.1,289 h 51.5 v 23.7 h 0.7 c 7.2,-13.6 24.7,-27.9 50.9,-27.9 54.4,0 64.5,35.8 64.5,82.4 V 462 H 332 v -84.1 c 0,-20.1 -0.3,-45.9 -27.9,-45.9 -28,0 -32.2,21.9 -32.2,44.4 V 462 H 218.2 V 289 Z"
       id="XMLID_192_" /></g></svg>
