<?xml version="1.0" encoding="UTF-8" standalone="no"?>
<svg
   xmlns:dc="http://purl.org/dc/elements/1.1/"
   xmlns:cc="http://creativecommons.org/ns#"
   xmlns:rdf="http://www.w3.org/1999/02/22-rdf-syntax-ns#"
   xmlns:svg="http://www.w3.org/2000/svg"
   xmlns="http://www.w3.org/2000/svg"
   xmlns:sodipodi="http://sodipodi.sourceforge.net/DTD/sodipodi-0.dtd"
   xmlns:inkscape="http://www.inkscape.org/namespaces/inkscape"
   data-name="Livello 1"
   id="Livello_1"
   viewBox="0 0 76 128"
   version="1.1"
   sodipodi:docname="1904669-call-chat-device-message-mobile-phone-smartphone_122519.svg"
   width="76"
   height="128"
   inkscape:version="1.0.2 (e86c870879, 2021-01-15)">
  <metadata
     id="metadata74">
    <rdf:RDF>
      <cc:Work
         rdf:about="">
        <dc:format>image/svg+xml</dc:format>
        <dc:type
           rdf:resource="http://purl.org/dc/dcmitype/StillImage" />
      </cc:Work>
    </rdf:RDF>
  </metadata>
  <defs
     id="defs72" />
  <sodipodi:namedview
     pagecolor="#ffffff"
     bordercolor="#666666"
     borderopacity="1"
     objecttolerance="10"
     gridtolerance="10"
     guidetolerance="10"
     inkscape:pageopacity="0"
     inkscape:pageshadow="2"
     inkscape:window-width="1280"
     inkscape:window-height="733"
     id="namedview70"
     showgrid="false"
     inkscape:zoom="3.8984375"
     inkscape:cx="38"
     inkscape:cy="72.70645"
     inkscape:window-x="0"
     inkscape:window-y="0"
     inkscape:window-maximized="1"
     inkscape:current-layer="Livello_1" />
  <title
     id="title61" />
  <path
     d="M 65,0 H 11 A 11,11 0 0 0 0,11 v 106 a 11,11 0 0 0 11,11 H 65 A 11,11 0 0 0 76,117 V 11 A 11,11 0 0 0 65,0 Z M 6,22.69 H 70 V 99.58 H 6 Z M 11,6 h 54 a 5,5 0 0 1 5,5 v 5.69 H 6 V 11 A 5,5 0 0 1 11,6 Z M 65,122 H 11 A 5,5 0 0 1 6,117 V 105.58 H 70 V 117 a 5,5 0 0 1 -5,5 z"
     id="path63" />
  <circle
     cx="38"
     cy="113.91"
     r="6"
     id="circle65" />
  <path
     d="m 30.13,14.22 h 15.75 a 3,3 0 1 0 0,-6 H 30.13 a 3,3 0 1 0 0,6 z"
     id="path67" />
</svg>
