<?xml version="1.0" encoding="UTF-8" standalone="no"?>
<svg
   xmlns:dc="http://purl.org/dc/elements/1.1/"
   xmlns:cc="http://creativecommons.org/ns#"
   xmlns:rdf="http://www.w3.org/1999/02/22-rdf-syntax-ns#"
   xmlns:svg="http://www.w3.org/2000/svg"
   xmlns="http://www.w3.org/2000/svg"
   xmlns:sodipodi="http://sodipodi.sourceforge.net/DTD/sodipodi-0.dtd"
   xmlns:inkscape="http://www.inkscape.org/namespaces/inkscape"
   width="20"
   height="18.000158"
   viewBox="0 0 20 18.000158"
   version="1.1"
   id="svg639"
   sodipodi:docname="pool.svg"
   inkscape:version="1.0.2 (e86c870879, 2021-01-15)">
  <metadata
     id="metadata645">
    <rdf:RDF>
      <cc:Work
         rdf:about="">
        <dc:format>image/svg+xml</dc:format>
        <dc:type
           rdf:resource="http://purl.org/dc/dcmitype/StillImage" />
      </cc:Work>
    </rdf:RDF>
  </metadata>
  <defs
     id="defs643" />
  <sodipodi:namedview
     pagecolor="#ffffff"
     bordercolor="#666666"
     borderopacity="1"
     objecttolerance="10"
     gridtolerance="10"
     guidetolerance="10"
     inkscape:pageopacity="0"
     inkscape:pageshadow="2"
     inkscape:window-width="714"
     inkscape:window-height="480"
     id="namedview641"
     showgrid="false"
     inkscape:zoom="22"
     inkscape:cx="10"
     inkscape:cy="9.0001588"
     inkscape:window-x="0"
     inkscape:window-y="0"
     inkscape:window-maximized="0"
     inkscape:current-layer="svg639" />
  <path
     d="m 20,18.000159 c -1.11,0 -1.73,-0.37 -2.18,-0.64 -0.37,-0.22 -0.6,-0.36 -1.15,-0.36 -0.56,0 -0.78,0.13 -1.15,0.36 -0.46,0.27 -1.07,0.64 -2.18,0.64 -1.11,0 -1.73,-0.37 -2.18,-0.64 -0.37,-0.22 -0.6,-0.36 -1.15,-0.36 -0.56,0 -0.78,0.13 -1.15,0.36 -0.46,0.27 -1.08,0.64 -2.19,0.64 -1.11,0 -1.73,-0.37 -2.18,-0.64 -0.37,-0.23 -0.6,-0.36 -1.15,-0.36 -0.55,0 -0.78,0.13 -1.15,0.36 -0.46,0.27 -1.08,0.64 -2.19,0.64 v -2 c 0.56,0 0.78,-0.13 1.15,-0.36 0.46,-0.27 1.08,-0.64 2.19,-0.64 1.11,0 1.73,0.37 2.18,0.64 0.37,0.23 0.59,0.36 1.15,0.36 0.56,0 0.78,-0.13 1.15,-0.36 0.46,-0.27 1.08,-0.64 2.19,-0.64 1.11,0 1.73,0.37 2.18,0.64 0.37,0.22 0.6,0.36 1.15,0.36 0.55,0 0.78,-0.13 1.15,-0.36 0.45,-0.27 1.07,-0.64 2.18,-0.64 1.11,0 1.73,0.37 2.18,0.64 0.37,0.23 0.59,0.36 1.15,0.36 z m 0,-4.5 c -1.11,0 -1.73,-0.37 -2.18,-0.64 -0.37,-0.22 -0.6,-0.36 -1.15,-0.36 -0.56,0 -0.78,0.13 -1.15,0.36 -0.45,0.27 -1.07,0.64 -2.18,0.64 -1.11,0 -1.73,-0.37 -2.18,-0.64 -0.37,-0.22 -0.6,-0.36 -1.15,-0.36 -0.56,0 -0.78,0.13 -1.15,0.36 -0.45,0.27 -1.07,0.64 -2.18,0.64 -1.11,0 -1.73,-0.37 -2.18,-0.64 -0.37,-0.22 -0.6,-0.36 -1.15,-0.36 -0.55,0 -0.78,0.13 -1.15,0.36 -0.47,0.27 -1.09,0.64 -2.2,0.64 v -2 c 0.56,0 0.78,-0.13 1.15,-0.36 0.45,-0.27 1.07,-0.64 2.18,-0.64 1.11,0 1.73,0.37 2.18,0.64 0.37,0.22 0.6,0.36 1.15,0.36 0.56,0 0.78,-0.13 1.15,-0.36 0.45,-0.27 1.07,-0.64 2.18,-0.64 1.11,0 1.73,0.37 2.18,0.64 0.37,0.22 0.6,0.36 1.15,0.36 0.55,0 0.78,-0.13 1.15,-0.36 0.45,-0.27 1.07,-0.64 2.18,-0.64 1.11,0 1.73,0.37 2.18,0.64 0.37,0.22 0.6,0.36 1.15,0.36 v 2 z M 6.67,9.0001588 c 0.56,0 0.78,-0.13 1.15,-0.36 0.46,-0.27 1.08,-0.64 2.19,-0.64 1.11,0 1.73,0.37 2.18,0.64 0.37,0.22 0.6,0.36 1.15,0.36 0.55,0 0.78,-0.13 1.15,-0.36 0.12,-0.07 0.26,-0.15 0.41,-0.23 l -6.42,-6.41 C 6.93,0.45015884 5.5,-0.00984116 3,1.5883575e-4 V 2.5001588 c 1.82,-0.01 2.89,0.39 4,1.5 l 1,1 -3.25,3.25 c 0.31,0.12 0.56,0.27 0.77,0.39 0.37,0.23 0.59,0.36 1.15,0.36 z"
     id="path635" />
  <circle
     cx="14.5"
     cy="2.5001588"
     r="2.5"
     id="circle637" />
</svg>
