<?xml version="1.0" encoding="iso-8859-1"?><svg xmlns="http://www.w3.org/2000/svg" viewBox="0 0 490 490" style="enable-background:new 0 0 490 490" xml:space="preserve"><path d="M103.531 233.426c-8.152-7.476-18.678.438-17.795 7.371v160.422c0 5.757 4.667 10.426 10.425 10.426H256.56c8.931 0 14.109-11.059 7.37-17.798L103.531 233.426zm3.054 157.367V265.967l124.808 124.826H106.585z"/><path d="M486.915 472.191 17.795 3.009C12.887-2.352.386-.933 0 10.38v469.183c0 5.758 4.667 10.426 10.425 10.426h469.12c7.221.38 14.875-9.331 7.37-17.798zM20.85 469.137V35.55l53.02 53.027-14.742 14.744 14.742 14.743 14.742-14.743 63.445 63.453-14.742 14.744 14.742 14.742 14.742-14.743 63.445 63.454-14.742 14.744 14.742 14.743 14.742-14.743 63.445 63.454-14.742 14.744 14.742 14.743 14.742-14.743 63.445 63.453-14.742 14.744 14.742 14.743 14.742-14.743 53.02 53.027H20.85z"/></svg>
