<?xml version="1.0" encoding="UTF-8" standalone="no"?>
<svg
   xmlns:dc="http://purl.org/dc/elements/1.1/"
   xmlns:cc="http://creativecommons.org/ns#"
   xmlns:rdf="http://www.w3.org/1999/02/22-rdf-syntax-ns#"
   xmlns:svg="http://www.w3.org/2000/svg"
   xmlns="http://www.w3.org/2000/svg"
   xmlns:sodipodi="http://sodipodi.sourceforge.net/DTD/sodipodi-0.dtd"
   xmlns:inkscape="http://www.inkscape.org/namespaces/inkscape"
   width="27.80126"
   height="31.998293"
   viewBox="0 0 27.80126 31.998293"
   version="1.1"
   id="svg4"
   sodipodi:docname="tiktok-svgrepo-com (1).svg"
   inkscape:version="1.0.2 (e86c870879, 2021-01-15)">
  <metadata
     id="metadata10">
    <rdf:RDF>
      <cc:Work
         rdf:about="">
        <dc:format>image/svg+xml</dc:format>
        <dc:type
           rdf:resource="http://purl.org/dc/dcmitype/StillImage" />
      </cc:Work>
    </rdf:RDF>
  </metadata>
  <defs
     id="defs8" />
  <sodipodi:namedview
     pagecolor="#ffffff"
     bordercolor="#666666"
     borderopacity="1"
     objecttolerance="10"
     gridtolerance="10"
     guidetolerance="10"
     inkscape:pageopacity="0"
     inkscape:pageshadow="2"
     inkscape:window-width="1280"
     inkscape:window-height="773"
     id="namedview6"
     showgrid="false"
     inkscape:zoom="17.75"
     inkscape:cx="13.895259"
     inkscape:cy="16.968848"
     inkscape:window-x="0"
     inkscape:window-y="0"
     inkscape:window-maximized="1"
     inkscape:current-layer="svg4" />
  <path
     d="m 14.603259,0.027 c 1.745,-0.027 3.48,-0.011 5.213,-0.027 0.105,2.041 0.839,4.12 2.333,5.563 1.491,1.479 3.6,2.156 5.652,2.385 v 5.369 c -1.923,-0.063 -3.855,-0.463 -5.6,-1.291 -0.76,-0.344 -1.468,-0.787 -2.161,-1.24 -0.009,3.896 0.016,7.787 -0.025,11.667 -0.104,1.864 -0.719,3.719 -1.803,5.255 -1.744,2.557 -4.771,4.224 -7.88,4.276 C 8.4252591,32.093 6.5202591,31.573 4.8952591,30.615 2.2022591,29.027 0.30725909,26.12 0.03125909,23 c -0.0319999965,-0.667 -0.043,-1.333 -0.016,-1.984 0.24,-2.537 1.49500001,-4.964 3.44300001,-6.615 2.208,-1.923 5.301,-2.839 8.1969999,-2.297 0.027,1.975 -0.052,3.948 -0.052,5.923 -1.323,-0.428 -2.8689999,-0.308 -4.0249999,0.495 -0.844,0.547 -1.485,1.385 -1.819,2.333 -0.276,0.676 -0.197,1.427 -0.181,2.145 0.317,2.188 2.421,4.027 4.6669999,3.828 1.489,-0.016 2.916,-0.88 3.692,-2.145 0.251,-0.443 0.532,-0.896 0.547,-1.417 0.131,-2.385 0.079,-4.76 0.095,-7.145 0.011,-5.375 -0.016,-10.735 0.025,-16.093 z"
     id="path2" />
</svg>
