<?xml version="1.0" ?>
<svg viewBox="0 0 135.467 110.067" xmlns="http://www.w3.org/2000/svg">
    <path d="M135.467 13.03c-5.038 2.21-10.406 3.675-16.002 4.386 5.757-3.438 10.151-8.84 12.217-15.35-5.368 3.2-11.294 5.46-17.61 6.722A27.83 27.83 0 0093.784 0C78.41 0 66.032 12.48 66.032 27.78c0 2.2.186 4.317.643 6.332C43.586 32.986 23.156 21.92 9.432 5.063 7.036 9.22 5.63 13.978 5.63 19.101c0 9.618 4.953 18.144 12.336 23.08-4.462-.085-8.839-1.38-12.547-3.42v.304c0 13.496 9.626 24.706 22.25 27.288-2.26.618-4.724.915-7.281.915-1.778 0-3.573-.102-5.258-.474 3.598 10.998 13.81 19.083 25.95 19.346A55.802 55.802 0 016.646 97.985c-2.277 0-4.462-.102-6.646-.381 12.302 7.933 26.882 12.463 42.604 12.463 51.105 0 79.045-42.334 79.045-79.028 0-1.228-.042-2.413-.102-3.59 5.512-3.912 10.144-8.797 13.92-14.419z"/>
</svg>
