<?xml version="1.0" encoding="UTF-8" standalone="no"?>
<svg
   xmlns:dc="http://purl.org/dc/elements/1.1/"
   xmlns:cc="http://creativecommons.org/ns#"
   xmlns:rdf="http://www.w3.org/1999/02/22-rdf-syntax-ns#"
   xmlns:svg="http://www.w3.org/2000/svg"
   xmlns="http://www.w3.org/2000/svg"
   xmlns:sodipodi="http://sodipodi.sourceforge.net/DTD/sodipodi-0.dtd"
   xmlns:inkscape="http://www.inkscape.org/namespaces/inkscape"
   height="1536.001"
   style="clip-rule:evenodd;fill-rule:evenodd;image-rendering:optimizeQuality;shape-rendering:geometricPrecision;text-rendering:geometricPrecision"
   width="1280.0031"
   xml:space="preserve"
   version="1.1"
   id="svg267"
   sodipodi:docname="youtube-colored.svg"
   inkscape:version="1.0.2 (e86c870879, 2021-01-15)"><metadata
   id="metadata271"><rdf:RDF><cc:Work
       rdf:about=""><dc:format>image/svg+xml</dc:format><dc:type
         rdf:resource="http://purl.org/dc/dcmitype/StillImage" /><dc:title></dc:title></cc:Work></rdf:RDF></metadata><sodipodi:namedview
   pagecolor="#ffffff"
   bordercolor="#666666"
   borderopacity="1"
   objecttolerance="10"
   gridtolerance="10"
   guidetolerance="10"
   inkscape:pageopacity="0"
   inkscape:pageshadow="2"
   inkscape:window-width="1280"
   inkscape:window-height="733"
   id="namedview269"
   showgrid="false"
   inkscape:zoom="0.13995465"
   inkscape:cx="974.58952"
   inkscape:cy="843.18133"
   inkscape:window-x="0"
   inkscape:window-y="0"
   inkscape:window-maximized="1"
   inkscape:current-layer="svg267" /><defs
   id="defs253"><style
     id="style251">.fil2{fill:#D42927}.fil1{fill:#fffffe}</style></defs>
    <g
   id="Layer_x0020_1"
   transform="translate(-383.997,-255.999)"><g
     id="_251945080"><path
       d="m 1664,1141.42 v 452.993 C 1664,1703.082 1569.748,1792 1454.59,1792 H 593.407 c -115.243,0 -209.41,-88.918 -209.41,-197.587 V 1141.42 c 0,-108.676 94.167,-197.588 209.41,-197.588 h 861.183 c 115.158,0 209.41,88.912 209.41,197.588 z"
       id="_251945488"
       style="fill:#d42927" /><path
       fill="#fffffe"
       id="_251945728"
       d="m 473.002,1095.34 v 69.5 l 88.835,0.24 v 478.5 h 88.997 v -477.16 h 106.752 v -70.68 z" /><path
       fill="#fffffe"
       d="m 740.157,1237.5 0.26,252.503 c 0.085,38.739 -0.92,67.584 0.339,80.743 2.153,23.173 1.324,50.155 22.828,65.581 40.08,28.84 116.838,-4.33 135.997,-45.589 l -0.17,52.671 71.509,0.085 -0.084,-405.995 h -89.004 v 254.825 c 0,36.846 2.244,55.254 -0.084,61.76 -7.251,19.733 -39.743,40.747 -52.503,2.16 -2.086,-6.744 -0.254,-27.159 -0.254,-62.166 l -0.32,-256.579 h -88.514 z"
       id="_251945536" /><path
       fill="#fffffe"
       d="m 1024.26,1095.83 -0.43,544.258 73.087,-1.089 6.658,-33.919 c 93.418,85.757 152.173,27.007 151.999,-75.736 l -0.146,-212.179 c -0.085,-80.748 -60.588,-129.15 -142.678,-63.828 l 0.423,-157.676 -88.912,0.17 z m 87.4,210.753 c 0,-17.58 17.513,-32.002 38.848,-32.002 21.503,0 38.999,14.422 38.999,32.002 v 238.08 c 0,17.58 -17.496,31.918 -38.999,31.918 -21.335,0 -38.848,-14.339 -38.848,-31.918 z"
       id="_251945296" /><path
       fill="#fffffe"
       d="m 1357.91,1235.09 c -16.913,12.162 -29.825,28.416 -37.336,50.326 -7.57,21.824 -11.326,51.673 -11.326,89.668 v 126.418 c 0,210.239 255.339,180.504 224.922,-0.34 l -66.756,0.425 a 274.042,274.042 0 0 0 -0.17,9.003 v 37.251 c 0,19.902 -16.49,36.072 -36.5,36.072 h -13.08 c -19.987,0 -36.502,-16.17 -36.502,-36.072 v -98.007 h 152.831 v -57.491 c 0,-42.01 -1.087,-84.014 -4.499,-108.1 -10.987,-75.99 -117.656,-88.084 -171.585,-49.153 z m 70.016,55.92 c 21.824,0 39.748,17.833 39.748,39.572 l -0.92,48.917 h -84.328 l 0.405,-48.917 c 0,-21.74 17.834,-39.573 39.676,-39.573 h 5.419 z"
       id="_251944744" /><path
       fill="#d42927"
       id="_251945416"
       d="m 694.162,533.907 0.176,323.437 h 93.587 L 788.01,533.762 898.583,256.575 H 796.245 L 737.406,462.422 677.822,255.999 H 576.488 Z" /><path
       fill="#d42927"
       d="m 901.244,481.411 c -6.652,22.846 -10.088,54.42 -10.088,94.93 v 111.747 c 0,36.906 1.748,64.657 5.504,83.156 3.755,18.432 9.917,34.263 18.667,47.253 8.66,13.014 20.846,22.846 36.586,29.244 15.657,6.598 34.754,9.67 57.346,9.67 20.241,0 38.164,-3.652 53.82,-11.333 15.512,-7.486 28.247,-19.242 38.165,-35.068 10.093,-15.916 16.575,-32.92 19.587,-51.268 3.006,-18.239 4.584,-47.078 4.584,-86.161 V 566.829 c 0,-30.913 -1.663,-53.827 -4.929,-69.078 -3.326,-14.997 -9.403,-29.674 -18.407,-43.927 -8.835,-14.247 -21.505,-25.749 -38.08,-34.579 -16.425,-8.835 -36.078,-13.334 -59.01,-13.334 -27.327,0 -49.75,6.93 -67.238,20.755 -17.58,13.763 -29.765,32.002 -36.507,54.745 z m 67.584,262.505 V 519.34 c 0,-23.832 17.84,-43.354 39.513,-43.354 21.654,0 39.318,19.522 39.318,43.354 v 224.576 c 0,23.91 -17.664,43.413 -39.319,43.413 -21.673,0 -39.512,-19.503 -39.512,-43.413 z"
       id="_251944864" /><path
       fill="#d42927"
       d="m 1181.59,422.25 v 284.583 c 0,36.247 0.66,60.418 1.747,72.664 1.089,12.16 3.907,23.832 8.49,35.177 4.59,11.072 11.671,20.161 21.42,26.989 9.494,6.76 21.764,10.093 36.416,10.093 12.844,0 24.171,-3.417 34.095,-10.583 9.832,-7.166 18.153,-17.749 24.914,-31.917 l -1.663,34.904 h 99.242 V 422.25 h -78.082 v 328.34 c 0,17.834 -14.677,32.324 -32.595,32.324 -17.815,0 -32.491,-14.49 -32.491,-32.323 V 422.25 Z"
       id="_251944672" /></g></g>
    <path
   style="fill:none"
   d="m -383.997,-255.999 h 2048 v 2048 h -2048 z"
   id="path265" /></svg>
