<svg xmlns="http://www.w3.org/2000/svg" xml:space="preserve" width="48" height="21"><path style="fill:#3f3f3f" d="M57 0H3C1.346 0 0 1.346 0 3v56c0 .552.448 1 1 1h58c.552 0 1-.448 1-1V3c0-1.654-1.346-3-3-3ZM3 2h54c.551 0 1 .449 1 1v5H2V3c0-.551.449-1 1-1Zm16 51v5h-8v-5zm2 0h8v5h-8zm10 0h8v5h-8zm10 0h8v5h-8ZM2 51V17h56v34Zm0-36v-5h56v5zm0 38h7v5H2Zm49 5v-5h7v5z" transform="translate(-6 -24)"/><path style="fill:#231f20" d="M5 4h4v2H5zM12 4h4v2h-4zM16 24h-2v13H8V24H6v14c0 .552.448 1 1 1h7v6h2v-6h3v-2h-3zM54 37h-3V24h-2v13h-6V24h-2v14c0 .552.448 1 1 1h7v6h2v-6h3zM30 24c-3.86 0-7 3.14-7 7v7c0 3.86 3.14 7 7 7s7-3.14 7-7v-7c0-3.86-3.14-7-7-7zm5 14c0 2.757-2.243 5-5 5s-5-2.243-5-5v-7c0-2.757 2.243-5 5-5s5 2.243 5 5z" transform="translate(-6 -24)"/></svg>
