<svg xmlns="http://www.w3.org/2000/svg" xml:space="preserve" width="138.349" height="51.868"><path d="M1372.53 1983.85v64.49h27.52c12.27 0 18.4-5.16 18.4-15.47 0-8.39-5.99-14.6-17.99-18.63l22.15-30.39h-11.01l-20.52 29v5.45c12.33 1.95 18.49 6.7 18.49 14.21 0 5.96-3.42 8.94-10.28 8.94h-18.41v-57.6h-8.35M1473.57 2048.34v-6.76h-33.83v-21.66H1472v-6.76h-32.26v-22.55h34.51v-6.76h-42.85v64.49h42.17M1489 1983.85h-8.65l27.37 64.49h9.25l27.52-64.49h-9.26l-8.34 20.29h-21.33l2.3 6.76h16.24l-12.05 29.24-23.05-56.29M1561.62 2048.34v-57.73h33.75v-6.76h-42.09v64.49h8.34M1670.01 2048.34v-6.76h-33.82v-21.66h32.24v-6.76h-32.24v-22.55h34.5v-6.76h-42.85v64.49h42.17M1682.42 1986.09v7.68c6.75-2.41 14.07-3.61 21.91-3.61 11.09 0 16.65 4.06 16.65 12.18 0 6.92-4.09 10.37-12.27 10.37h-8.3c-13.5 0-20.25 5.86-20.25 17.59 0 12.33 8.64 18.49 25.93 18.49 7.52 0 14.51-.9 20.98-2.7v-7.67c-6.47 2.4-13.46 3.61-20.98 3.61-11.72 0-17.58-3.9-17.58-11.73 0-6.92 3.97-10.38 11.9-10.38h8.3c13.75 0 20.62-5.86 20.62-17.58 0-12.63-8.34-18.94-25-18.94-7.84 0-15.16.9-21.91 2.69M1785.03 2048.34v-6.76h-20.3v-57.73h-8.35v57.73h-20.29v6.76h48.94M1790.31 1983.85h-8.67l27.38 64.49h9.25l27.51-64.49h-9.24l-8.35 20.29h-21.34l2.31 6.76h16.23l-12.04 29.24-23.04-56.29M1891.34 2048.34v-6.76h-20.29v-57.73h-8.35v57.73h-20.3v6.76h48.94M1943.43 2048.34v-6.76h-33.83v-21.66h32.25v-6.76h-32.25v-22.55h34.52v-6.76h-42.86v64.49h42.17M1345.05 1955.86l4.91-9.57 4.99 9.57h4.17l-7.23-12.94v-6.94h-3.83v7l-7.21 12.88h4.2M1373.94 1945.92c0-.86.12-1.69.37-2.49.26-.81.62-1.52 1.1-2.13.46-.62 1.05-1.11 1.74-1.49.7-.38 1.48-.55 2.36-.55.9 0 1.68.18 2.36.56.68.39 1.26.9 1.72 1.53.47.64.83 1.35 1.07 2.15.24.8.36 1.6.36 2.42 0 .86-.12 1.69-.39 2.5-.26.8-.63 1.5-1.1 2.13a5.7 5.7 0 0 1-1.74 1.46c-.68.37-1.45.55-2.31.55-.89 0-1.69-.2-2.37-.58-.68-.38-1.26-.89-1.73-1.51-.48-.63-.83-1.33-1.09-2.13-.23-.79-.35-1.6-.35-2.42zm5.51-10.08c-1.4 0-2.68.29-3.83.85-1.16.58-2.16 1.33-2.99 2.27-.83.94-1.46 2.02-1.91 3.23-.45 1.22-.69 2.46-.69 3.73 0 1.33.25 2.6.73 3.81.47 1.21 1.13 2.28 1.99 3.22a9.27 9.27 0 0 0 3.01 2.23c1.15.54 2.42.82 3.78.82 1.39 0 2.67-.3 3.83-.88a9.665 9.665 0 0 0 2.97-2.31c.82-.95 1.46-2.04 1.9-3.25.45-1.22.68-2.45.68-3.7 0-1.33-.24-2.59-.72-3.79-.47-1.21-1.13-2.27-1.97-3.19a9.528 9.528 0 0 0-2.99-2.22c-1.16-.55-2.42-.82-3.79-.82M1411.49 1939.26c.92 0 1.69.17 2.31.55.63.38 1.14.87 1.51 1.46.39.59.66 1.29.82 2.06.15.77.23 1.57.23 2.39v10.14h3.84v-10.14c0-1.36-.17-2.63-.49-3.83a8.62 8.62 0 0 0-1.54-3.14c-.69-.9-1.6-1.6-2.71-2.13-1.09-.53-2.41-.78-3.94-.78-1.58 0-2.93.27-4.04.82-1.12.55-2.02 1.28-2.71 2.19-.69.9-1.19 1.95-1.49 3.14-.32 1.2-.47 2.44-.47 3.73v10.14h3.86v-10.14c0-.84.08-1.64.24-2.42.16-.78.43-1.46.82-2.06.37-.6.88-1.08 1.49-1.44.62-.37 1.38-.54 2.27-.54M1439.14 1946.04h4.84c.35 0 .68.07 1 .25.3.16.56.39.79.68.22.29.4.63.53 1.02s.2.82.2 1.27c0 .46-.08.88-.23 1.29-.14.39-.35.72-.6 1.01-.25.3-.54.51-.87.67-.33.16-.65.24-1 .24h-4.66zm-3.87-10.06v19.88h8.79c.92 0 1.76-.2 2.54-.57.77-.39 1.44-.9 2-1.52.56-.63.99-1.33 1.32-2.13.31-.78.47-1.58.47-2.38 0-1.29-.32-2.46-.96-3.52-.65-1.05-1.52-1.81-2.62-2.28l4.67-7.48h-4.37l-4.17 6.66h-3.8v-6.66h-3.87M1497.33 1952.47H1491v-16.49h-3.87v16.49h-6.35v3.39h16.55v-3.39M1516.58 1951.69l-2.86-8.04h5.62zm-9.42-15.71 7.84 19.88h3.14l7.81-19.88h-4.08l-1.83 4.96h-6.97l-1.82-4.96h-4.09M1552.61 1938.22c-1.53-1.59-3.3-2.38-5.29-2.38-1.27 0-2.46.27-3.59.84a9.413 9.413 0 0 0-2.92 2.25c-.83.95-1.49 2.03-1.97 3.26-.47 1.24-.71 2.52-.71 3.85 0 1.35.24 2.63.71 3.84a10.14 10.14 0 0 0 1.99 3.17c.85.9 1.85 1.62 2.99 2.16 1.16.53 2.41.79 3.75.79 1.81 0 3.36-.39 4.65-1.18 1.29-.78 2.26-1.83 2.91-3.16l-2.89-2.13c-.48 1-1.15 1.75-1.99 2.27-.86.52-1.8.78-2.81.78-.83 0-1.58-.18-2.23-.53-.66-.35-1.23-.84-1.7-1.45-.47-.62-.84-1.33-1.09-2.13-.27-.8-.39-1.65-.39-2.55 0-.94.13-1.81.42-2.62.28-.81.67-1.52 1.17-2.11.51-.6 1.1-1.07 1.79-1.42.67-.34 1.42-.51 2.24-.51 1.84 0 3.49.9 4.96 2.71v1.4h-4v2.83h7.19v-10.22h-3.19v2.24M1570.34 1935.98v19.88h3.86v-16.5h10.14v-3.38h-14M1598.03 1935.98v19.86h3.87v-19.86h-3.87M1621.11 1948.72v-12.74h-3.87v19.88h3.01l10.35-13.05v13.03h3.87v-19.86h-3.14l-10.22 12.74M1663.63 1939.36v-3.38h-13.81v19.88h13.55v-3.39h-9.68v-4.78h8.37v-3.14h-8.37v-5.19h9.94M1707.71 1950.64c-.14.14-.37.32-.72.54-.34.23-.76.44-1.25.66-.5.21-1.04.39-1.62.54-.57.16-1.17.24-1.76.24-1.07 0-1.86-.2-2.38-.59-.53-.4-.79-.96-.79-1.66 0-.41.1-.75.3-1.01.19-.28.48-.51.86-.73.37-.2.84-.39 1.4-.56.57-.16 1.23-.34 1.98-.53.97-.25 1.85-.54 2.65-.84.78-.29 1.47-.66 2.01-1.11.55-.45.98-.99 1.27-1.61.31-.64.45-1.4.45-2.32 0-1.06-.19-1.97-.6-2.73-.39-.75-.94-1.37-1.6-1.84-.68-.46-1.47-.8-2.36-1.02-.9-.21-1.82-.32-2.8-.32-1.5 0-2.97.23-4.42.68-1.46.45-2.77 1.07-3.92 1.9l1.7 3.33c.17-.17.47-.39.92-.65.43-.28.95-.54 1.55-.81.59-.28 1.26-.51 1.98-.69.73-.19 1.49-.29 2.25-.29 2.13 0 3.18.68 3.18 2.05 0 .45-.12.82-.35 1.11-.25.32-.6.57-1.04.8-.44.22-.99.43-1.63.61-.63.19-1.33.39-2.13.59-.94.26-1.77.54-2.47.85-.7.32-1.29.67-1.75 1.08-.47.41-.82.9-1.06 1.46-.23.55-.35 1.21-.35 1.99 0 1 .2 1.9.57 2.68.37.78.89 1.45 1.55 1.96.66.52 1.43.92 2.31 1.2.88.26 1.82.4 2.84.4 1.39 0 2.67-.22 3.85-.66 1.18-.44 2.2-.95 3.08-1.55l-1.7-3.15M1728.12 1946.04h4.48c.72 0 1.3.28 1.78.85.48.59.71 1.37.71 2.37 0 .5-.08.95-.22 1.35-.15.41-.34.74-.59 1.02-.24.28-.53.5-.85.64-.33.13-.66.2-.99.2h-4.32zm-3.87-10.06v19.88h8.44c.91 0 1.76-.2 2.53-.57.77-.39 1.44-.9 2-1.52.57-.63 1-1.33 1.32-2.13.32-.78.48-1.58.48-2.38 0-.84-.16-1.66-.45-2.46-.3-.79-.72-1.5-1.27-2.11a6.105 6.105 0 0 0-1.95-1.49c-.77-.37-1.6-.56-2.52-.56h-4.71v-6.66h-3.87M1758.82 1951.69l-2.86-8.04h5.63zm-9.41-15.71 7.83 19.88h3.15l7.81-19.88h-4.08l-1.83 4.96h-6.97l-1.83-4.96h-4.08M1780.35 1946.05c0 1.22.21 2.43.64 3.61.43 1.18 1.06 2.24 1.87 3.17.81.94 1.8 1.7 2.97 2.27 1.19.58 2.52.88 4.05.88 1.77 0 3.3-.41 4.6-1.21 1.3-.81 2.25-1.85 2.87-3.14l-2.97-2.04c-.22.55-.52 1.04-.87 1.41-.35.39-.74.69-1.16.91-.42.22-.85.39-1.3.49-.45.1-.88.16-1.29.16-.92 0-1.72-.2-2.41-.59a5.38 5.38 0 0 1-1.72-1.53c-.46-.63-.81-1.34-1.05-2.12-.22-.8-.34-1.59-.34-2.37 0-.88.13-1.73.4-2.53.28-.82.67-1.53 1.16-2.15.48-.62 1.09-1.11 1.77-1.48.7-.38 1.45-.57 2.27-.57.43 0 .88.06 1.33.17.44.12.88.3 1.29.53.43.25.82.56 1.17.94.35.39.64.85.86 1.39l3.16-1.82c-.29-.74-.72-1.41-1.3-1.97a8.193 8.193 0 0 0-1.94-1.45c-.72-.39-1.49-.68-2.3-.9-.81-.19-1.59-.3-2.38-.3-1.38 0-2.65.3-3.8.89-1.14.6-2.13 1.39-2.97 2.34-.82.96-1.46 2.05-1.93 3.28-.45 1.23-.68 2.47-.68 3.73M1825.31 1939.36v-3.38h-13.81v19.88h13.55v-3.39h-9.68v-4.78h8.37v-3.14h-8.37v-5.19h9.94M1874.23 1955.86v-19.88h-3.84v8.48h-9.02v-8.48h-3.87v19.88h3.87v-8.04h9.02v8.04h3.84M1903.37 1939.36v-3.38h-13.8v19.88h13.56v-3.39h-9.7v-4.78h8.38v-3.14h-8.38v-5.19h9.94M1921.56 1946.04h4.84c.35 0 .68.07 1 .25.31.16.56.39.8.68.21.29.39.63.53 1.02.13.39.19.82.19 1.27 0 .46-.08.88-.21 1.29-.16.39-.36.72-.61 1.01-.25.3-.55.51-.88.67-.32.16-.64.24-.98.24h-4.68zm-3.87-10.06v19.88h8.79c.92 0 1.77-.2 2.54-.57.78-.39 1.44-.9 2.01-1.52.55-.63 1-1.33 1.31-2.13.31-.78.48-1.58.48-2.38 0-1.29-.32-2.46-.97-3.52a5.576 5.576 0 0 0-2.62-2.28l4.67-7.48h-4.35l-4.18 6.66h-3.81v-6.66h-3.87M1961.58 1939.36v-3.38h-13.81v19.88h13.55v-3.39h-9.68v-4.78h8.37v-3.14h-8.37v-5.19h9.94" style="fill:#004395;fill-opacity:1;fill-rule:nonzero;stroke:none" transform="matrix(.13333 0 0 -.13333 -123.195 122.745)"/><path d="M1372.53 579.68v64.5h27.52c12.27 0 18.4-5.16 18.4-15.469 0-8.402-5.99-14.609-17.99-18.629l22.15-30.402h-11.01l-20.52 29v5.461c12.33 1.949 18.49 6.687 18.49 14.199 0 5.961-3.42 8.941-10.28 8.941h-18.41V579.68h-8.35M1473.57 644.18v-6.77h-33.83v-21.648H1472v-6.774h-32.26v-22.539h34.51v-6.769h-42.85v64.5h42.17M1489 579.68h-8.65l27.37 64.5h9.25l27.52-64.5h-9.26l-8.34 20.3h-21.33l2.3 6.758h16.24l-12.05 29.231L1489 579.68M1561.62 644.18v-57.731h33.75v-6.769h-42.09v64.5h8.34M1670.01 644.18v-6.77h-33.82v-21.648h32.24v-6.774h-32.24v-22.539h34.5v-6.769h-42.85v64.5h42.17M1682.42 581.93v7.672c6.75-2.411 14.07-3.602 21.91-3.602 11.09 0 16.65 4.059 16.65 12.16 0 6.93-4.09 10.379-12.27 10.379h-8.3c-13.5 0-20.25 5.871-20.25 17.59 0 12.332 8.64 18.5 25.93 18.5 7.52 0 14.51-.899 20.98-2.707v-7.66c-6.47 2.398-13.46 3.597-20.98 3.597-11.72 0-17.58-3.898-17.58-11.73 0-6.91 3.97-10.367 11.9-10.367h8.3c13.75 0 20.62-5.864 20.62-17.602 0-12.609-8.34-18.93-25-18.93-7.84 0-15.16.899-21.91 2.7M1785.03 644.18v-6.77h-20.3v-57.73h-8.35v57.73h-20.29v6.77h48.94M1790.31 579.68h-8.67l27.38 64.5h9.25l27.51-64.5h-9.24l-8.35 20.3h-21.34l2.31 6.758h16.23l-12.04 29.231-23.04-56.289M1891.34 644.18v-6.77h-20.29v-57.73h-8.35v57.73h-20.3v6.77h48.94M1943.43 644.18v-6.77h-33.83v-21.648h32.25v-6.774h-32.25v-22.539h34.52v-6.769h-42.86v64.5h42.17M1345.05 551.699l4.91-9.578 4.99 9.578h4.17l-7.23-12.949v-6.93h-3.83v6.989l-7.21 12.89h4.2M1373.94 541.762c0-.864.12-1.703.37-2.5.26-.801.62-1.512 1.1-2.133a5.448 5.448 0 0 1 1.74-1.488c.7-.371 1.48-.551 2.36-.551.9 0 1.68.18 2.36.57.68.379 1.26.891 1.72 1.531a6.85 6.85 0 0 1 1.07 2.149 8.3 8.3 0 0 1 .36 2.422c0 .859-.12 1.679-.39 2.488a7.11 7.11 0 0 1-1.1 2.129 5.645 5.645 0 0 1-1.74 1.473 5.02 5.02 0 0 1-2.31.546c-.89 0-1.69-.199-2.37-.589a5.378 5.378 0 0 1-1.73-1.5c-.48-.629-.83-1.34-1.09-2.129a8.68 8.68 0 0 1-.35-2.418zm5.51-10.09c-1.4 0-2.68.277-3.83.848-1.16.582-2.16 1.332-2.99 2.269-.83.949-1.46 2.031-1.91 3.242a10.64 10.64 0 0 0-.69 3.731c0 1.328.25 2.597.73 3.808a10.122 10.122 0 0 0 1.99 3.219c.84.93 1.84 1.672 3.01 2.231 1.15.539 2.42.82 3.78.82 1.39 0 2.67-.301 3.83-.879a9.71 9.71 0 0 0 2.97-2.32c.82-.942 1.46-2.039 1.9-3.25.45-1.211.68-2.442.68-3.692 0-1.328-.24-2.597-.72-3.789a10.125 10.125 0 0 0-1.97-3.199 9.641 9.641 0 0 0-2.99-2.211c-1.16-.551-2.42-.828-3.79-.828M1411.49 535.09c.92 0 1.69.18 2.31.551.63.379 1.14.859 1.51 1.468.39.59.66 1.282.82 2.051.15.781.23 1.578.23 2.399v10.14h3.84v-10.14c0-1.36-.17-2.637-.49-3.848a8.603 8.603 0 0 0-1.54-3.121c-.69-.899-1.6-1.61-2.71-2.129-1.09-.531-2.41-.789-3.94-.789-1.58 0-2.93.277-4.04.828-1.12.551-2.02 1.27-2.71 2.191-.69.899-1.19 1.95-1.49 3.141a14.309 14.309 0 0 0-.47 3.727v10.14h3.86v-10.14c0-.84.08-1.649.24-2.418.16-.782.43-1.461.82-2.071.37-.59.88-1.07 1.49-1.441.62-.359 1.38-.539 2.27-.539M1439.14 541.871h4.84c.35 0 .68.078 1 .25.3.168.56.399.79.68.22.289.4.64.53 1.031.13.387.2.809.2 1.258 0 .461-.08.89-.23 1.289-.14.391-.35.73-.6 1.019-.25.293-.54.512-.87.672-.33.149-.65.231-1 .231h-4.66zm-3.87-10.051v19.879h8.79c.92 0 1.76-.199 2.54-.578a6.68 6.68 0 0 0 2-1.512c.56-.629.99-1.328 1.32-2.129.31-.789.47-1.589.47-2.39 0-1.289-.32-2.461-.96-3.52-.65-1.05-1.52-1.808-2.62-2.281l4.67-7.469h-4.37l-4.17 6.66h-3.8v-6.66h-3.87M1497.33 548.301H1491V531.82h-3.87v16.481h-6.35v3.398h16.55v-3.398M1516.58 547.52l-2.86-8.032h5.62zm-9.42-15.7 7.84 19.879h3.14l7.81-19.879h-4.08l-1.83 4.95h-6.97l-1.82-4.95h-4.09M1552.61 534.051c-1.53-1.59-3.3-2.379-5.29-2.379a7.92 7.92 0 0 0-3.59.84 9.59 9.59 0 0 0-2.92 2.258c-.83.929-1.49 2.031-1.97 3.261-.47 1.231-.71 2.52-.71 3.84 0 1.348.24 2.641.71 3.848.48 1.191 1.15 2.25 1.99 3.172a9.69 9.69 0 0 0 2.99 2.148c1.16.531 2.41.801 3.75.801 1.81 0 3.36-.391 4.65-1.18a7.515 7.515 0 0 0 2.91-3.16l-2.89-2.129c-.48.988-1.15 1.738-1.99 2.27a5.35 5.35 0 0 1-2.81.781c-.83 0-1.58-.184-2.23-.531a5.17 5.17 0 0 1-1.7-1.461 6.791 6.791 0 0 1-1.09-2.129c-.27-.801-.39-1.641-.39-2.539 0-.942.13-1.821.42-2.621.28-.821.67-1.52 1.17-2.121a5.86 5.86 0 0 1 1.79-1.411c.67-.359 1.42-.519 2.24-.519 1.84 0 3.49.91 4.96 2.711v1.398h-4v2.832h7.19V531.82h-3.19v2.231M1570.34 531.82v19.879h3.86v-16.5h10.14v-3.379h-14M1598.03 531.82v19.852h3.87V531.82h-3.87M1621.11 544.551V531.82h-3.87v19.879h3.01l10.35-13.051v13.024h3.87V531.82h-3.14l-10.22 12.731M1663.63 535.199v-3.379h-13.81v19.879h13.55v-3.398h-9.68v-4.781h8.37v-3.141h-8.37v-5.18h9.94M1707.71 546.48c-.14.141-.37.321-.72.532-.34.238-.76.449-1.25.668-.5.211-1.04.39-1.62.539-.57.16-1.17.23-1.76.23-1.07 0-1.86-.199-2.38-.59-.53-.398-.79-.949-.79-1.648 0-.41.1-.762.3-1.02.19-.281.48-.511.86-.722.37-.207.84-.387 1.4-.559a35.87 35.87 0 0 1 1.98-.531c.97-.258 1.85-.547 2.65-.84.78-.289 1.47-.668 2.01-1.117.55-.442.98-.992 1.27-1.621.31-.621.45-1.379.45-2.301 0-1.07-.19-1.969-.6-2.73a5.005 5.005 0 0 0-1.6-1.84c-.68-.469-1.47-.801-2.36-1.02-.9-.211-1.82-.328-2.8-.328-1.5 0-2.97.238-4.42.688-1.46.441-2.77 1.07-3.92 1.89l1.7 3.34c.17-.18.47-.391.92-.66.43-.281.95-.539 1.55-.809.59-.269 1.26-.5 1.98-.691.73-.18 1.49-.281 2.25-.281 2.13 0 3.18.679 3.18 2.05 0 .45-.12.821-.35 1.11-.25.312-.6.57-1.04.781-.44.238-.99.43-1.63.629-.63.172-1.33.383-2.13.582-.94.258-1.77.551-2.47.859-.7.309-1.29.668-1.75 1.078-.47.411-.82.903-1.06 1.454-.23.558-.35 1.218-.35 1.988 0 1.012.2 1.91.57 2.691a5.33 5.33 0 0 0 1.55 1.949c.66.532 1.43.918 2.31 1.2.88.269 1.82.41 2.84.41 1.39 0 2.67-.219 3.85-.668 1.18-.434 2.2-.961 3.08-1.543l-1.7-3.149M1728.12 541.871h4.48c.72 0 1.3.277 1.78.859.48.579.71 1.372.71 2.36 0 .5-.08.949-.22 1.359-.15.403-.34.742-.59 1.012-.24.289-.53.5-.85.641-.33.136-.66.199-.99.199h-4.32zm-3.87-10.051v19.879h8.44c.91 0 1.76-.199 2.53-.578a6.68 6.68 0 0 0 2-1.512c.57-.629 1-1.328 1.32-2.129.32-.789.48-1.589.48-2.39 0-.84-.16-1.66-.45-2.449a6.399 6.399 0 0 0-1.27-2.11 5.944 5.944 0 0 0-1.95-1.492c-.77-.379-1.6-.559-2.52-.559h-4.71v-6.66h-3.87M1758.82 547.52l-2.86-8.032h5.63zm-9.41-15.7 7.83 19.879h3.15l7.81-19.879h-4.08l-1.83 4.95h-6.97l-1.83-4.95h-4.08M1780.35 541.891c0 1.218.21 2.418.64 3.597a10.09 10.09 0 0 0 1.87 3.184c.81.937 1.8 1.687 2.97 2.269 1.19.579 2.52.868 4.05.868 1.77 0 3.3-.399 4.6-1.2 1.3-.808 2.25-1.859 2.87-3.148l-2.97-2.031c-.22.55-.52 1.031-.87 1.41-.35.39-.74.68-1.16.91a5.682 5.682 0 0 1-2.59.648c-.92 0-1.72-.207-2.41-.597a5.418 5.418 0 0 1-1.72-1.531 6.971 6.971 0 0 1-1.05-2.122 8.855 8.855 0 0 1-.34-2.367c0-.883.13-1.722.4-2.531.28-.809.67-1.539 1.16-2.141.48-.629 1.09-1.109 1.77-1.488a4.76 4.76 0 0 1 2.27-.562c.43 0 .88.062 1.33.171.44.11.88.29 1.29.532.43.238.82.547 1.17.937.35.379.64.84.86 1.391l3.16-1.82a5.4 5.4 0 0 0-1.3-1.969 7.779 7.779 0 0 0-1.94-1.449 10.19 10.19 0 0 0-2.3-.903 9.89 9.89 0 0 0-2.38-.308c-1.38 0-2.65.3-3.8.898-1.14.59-2.13 1.383-2.97 2.34-.82.961-1.46 2.051-1.93 3.269a10.777 10.777 0 0 0-.68 3.743M1825.31 535.199v-3.379h-13.81v19.879h13.55v-3.398h-9.68v-4.781h8.37v-3.141h-8.37v-5.18h9.94M1874.23 551.699V531.82h-3.84v8.469h-9.02v-8.469h-3.87v19.879h3.87v-8.051h9.02v8.051h3.84M1903.37 535.199v-3.379h-13.8v19.879h13.56v-3.398h-9.7v-4.781h8.38v-3.141h-8.38v-5.18h9.94M1921.56 541.871h4.84c.35 0 .68.078 1 .25.31.168.56.399.8.68.21.289.39.64.53 1.031.13.387.19.809.19 1.258 0 .461-.08.89-.21 1.289-.16.391-.36.73-.61 1.019-.25.293-.55.512-.88.672-.32.149-.64.231-.98.231h-4.68zm-3.87-10.051v19.879h8.79c.92 0 1.77-.199 2.54-.578a6.723 6.723 0 0 0 2.01-1.512c.55-.629 1-1.328 1.31-2.129.31-.789.48-1.589.48-2.39 0-1.289-.32-2.461-.97-3.52a5.594 5.594 0 0 0-2.62-2.281l4.67-7.469h-4.35l-4.18 6.66h-3.81v-6.66h-3.87M1961.58 535.199v-3.379h-13.81v19.879h13.55v-3.398h-9.68v-4.781h8.37v-3.141h-8.37v-5.18h9.94M997.172 537.621v128.238L1221.82 829.93l61.94-45.239 62.07 45.321-124.01 90.578-297.859-217.539v-165.43h73.211" style="fill:#004395;fill-opacity:1;fill-rule:nonzero;stroke:none" transform="matrix(.13333 0 0 -.13333 -123.195 122.745)"/><path d="M1239.78 537.621v128.238l224.66 164.071 124 .082-124 90.578-297.86-217.539v-165.43h73.2" style="fill:#f9c322;fill-opacity:1;fill-rule:nonzero;stroke:none" transform="matrix(.13333 0 0 -.13333 -123.195 122.745)"/></svg>
