<svg xmlns="http://www.w3.org/2000/svg"><symbol id="icon-agent" viewBox="0 0 32 32"><path d="M1.984 29.992v-2.029c0-.795.597-1.045.835-1.154l8.783-4.145a2 2 0 0 0 .416-3.376c-2.078-1.668-3.046-5.335-3.046-7.287V7.004c0-2.09 3.637-4.995 7.004-4.995 3.396 0 6.998 2.861 6.998 4.995v4.997c0 1.924-.8 5.604-2.945 7.293a2 2 0 0 0 .402 3.389l5.07 2.414 1.192-1.69-5.427-2.542c2.771-2.18 3.708-6.464 3.708-8.865V7.003c0-3.31-4.582-6.995-8.998-6.995S6.972 3.694 6.972 7.003V12c0 2.184.997 6.601 3.793 8.847l-8.783 4.145s-1.998.89-1.998 1.999v3.001c0 1.105.895 1.999 1.998 1.999h19.991l-1.625-2zm29.648-7.382a1 1 0 0 0-1.404.171l-4.276 6.522-2.658-2.659a1 1 0 1 0-1.415 1.414l3.535 3.535a1 1 0 0 0 1.629-.322l4.759-7.259a1 1 0 0 0-.172-1.403z"/></symbol><symbol id="icon-arrow-bottom" viewBox="0 0 403.6 490"><path d="M394 311.3c12.8-12.8 12.8-33.4 0-46.2-6.4-6.4-14.7-9.6-23.1-9.6-8.4 0-16.7 3.2-23.1 9.6L234.5 378.5V32.7c0-18-14.6-32.7-32.7-32.7s-32.7 14.6-32.7 32.7v345.8L55.8 265.1a32.592 32.592 0 0 0-46.2 0 32.592 32.592 0 0 0 0 46.2l169.1 169.1c6.1 6.2 14.4 9.6 23.1 9.6 8.7 0 17-3.4 23.1-9.6z"/></symbol><symbol id="icon-arrow-left" viewBox="0 0 490 403.6"><path d="M178.7 9.6c12.8-12.8 33.4-12.8 46.2 0 6.4 6.4 9.6 14.7 9.6 23.1 0 8.4-3.2 16.7-9.6 23.1L111.5 169.1h345.8c18 0 32.7 14.6 32.7 32.7s-14.6 32.7-32.7 32.7H111.5l113.4 113.3c12.8 12.8 12.8 33.4 0 46.2a32.592 32.592 0 0 1-46.2 0L9.6 224.9C3.4 218.8 0 210.5 0 201.8c0-8.7 3.4-17 9.6-23.1z" style="stroke-width:1"/></symbol><symbol id="icon-arrow-right" viewBox="0 0 490 403.6"><path d="M311.3 394a32.592 32.592 0 0 1-46.2 0c-6.4-6.4-9.6-14.7-9.6-23.1 0-8.4 3.2-16.7 9.6-23.1l113.4-113.3H32.7c-18 0-32.7-14.6-32.7-32.7s14.6-32.7 32.7-32.7h345.8L265.1 55.8a32.592 32.592 0 0 1 0-46.2c12.8-12.8 33.4-12.8 46.2 0l169.1 169.1c6.2 6.1 9.6 14.4 9.6 23.1 0 8.7-3.4 17-9.6 23.1z"/></symbol><symbol id="icon-arrow-top" viewBox="0 0 403.6 490"><path d="M394 178.7c12.8 12.8 12.8 33.4 0 46.2-6.4 6.4-14.7 9.6-23.1 9.6-8.4 0-16.7-3.2-23.1-9.6L234.5 111.5v345.8c0 18-14.6 32.7-32.7 32.7s-32.7-14.6-32.7-32.7V111.5L55.8 224.9a32.592 32.592 0 0 1-46.2 0 32.592 32.592 0 0 1 0-46.2L178.7 9.6c6.1-6.2 14.4-9.6 23.1-9.6 8.7 0 17 3.4 23.1 9.6z"/></symbol><symbol id="icon-bath" viewBox="0 0 512 512"><path d="M32 384a95.4 95.4 0 0 0 32 71.09V496a16 16 0 0 0 16 16h32a16 16 0 0 0 16-16v-16h256v16a16 16 0 0 0 16 16h32a16 16 0 0 0 16-16v-40.91A95.4 95.4 0 0 0 480 384v-48H32Zm464-128H80V69.25a21.26 21.26 0 0 1 36.28-15l19.27 19.26c-13.13 29.88-7.61 59.11 8.62 79.73l-.17.17a16 16 0 0 0 0 22.59l11.31 11.31a16 16 0 0 0 22.63 0L283.31 81.94a16 16 0 0 0 0-22.63L272 48a16 16 0 0 0-22.62 0l-.17.17c-20.62-16.23-49.83-21.75-79.73-8.62l-19.26-19.27A69.25 69.25 0 0 0 32 69.25V256H16a16 16 0 0 0-16 16v16a16 16 0 0 0 16 16h480a16 16 0 0 0 16-16v-16a16 16 0 0 0-16-16Z"/></symbol><symbol id="icon-bed" viewBox="0 0 512 512"><path d="M496 320V24c0-8.836-7.163-16-16-16s-16 7.164-16 16v16H48V24c0-8.836-7.164-16-16-16s-16 7.164-16 16v296c-8.836 0-16 7.164-16 16v152c0 8.836 7.164 16 16 16h56a15.999 15.999 0 0 0 14.311-8.845L105.889 456h300.223l19.578 39.155A15.999 15.999 0 0 0 440.001 504h56c8.837 0 16-7.164 16-16V336c-.001-8.836-7.164-16-16.001-16zm-32-91.833A71.58 71.58 0 0 0 424 216h-56v-32c0-35.29-28.71-64-64-64h-96c-35.29 0-64 28.71-64 64v32H88a71.58 71.58 0 0 0-40 12.167V72h416zM336 216H176v-32c0-17.645 14.355-32 32-32h96c17.645 0 32 14.355 32 32zM48 288c0-22.056 17.944-40 40-40h336c22.056 0 40 17.944 40 40v32H48zm432 184h-30.111l-19.578-39.155A15.999 15.999 0 0 0 416 424H96a15.999 15.999 0 0 0-14.311 8.845L62.111 472H32V352h448z"/></symbol><symbol id="icon-chart-bar" viewBox="0 0 20 20"><path d="M19 18h-1V3a1 1 0 0 0-2 0v15h-2v-7a1 1 0 0 0-2 0v7h-2V7a1 1 0 0 0-2 0v11H6v-3a1 1 0 0 0-2 0v3H2V1a1 1 0 0 0-2 0v18a1 1 0 0 0 1 1h18a1 1 0 0 0 0-2z"/></symbol><symbol id="icon-checkmark" viewBox="0 0 474.8 474.8"><path d="M396.283 257.097c-1.14-.575-2.282-.862-3.433-.862-2.478 0-4.661.951-6.563 2.857l-18.274 18.271c-1.708 1.715-2.566 3.806-2.566 6.283v72.513c0 12.565-4.463 23.314-13.415 32.264-8.945 8.945-19.701 13.418-32.264 13.418H82.226c-12.564 0-23.319-4.473-32.264-13.418-8.947-8.949-13.418-19.698-13.418-32.264V118.622c0-12.562 4.471-23.316 13.418-32.264 8.945-8.946 19.7-13.418 32.264-13.418H319.77c4.188 0 8.47.571 12.847 1.714 1.143.378 1.999.571 2.563.571 2.478 0 4.668-.949 6.57-2.852l13.99-13.99c2.282-2.281 3.142-5.043 2.566-8.276-.571-3.046-2.286-5.236-5.141-6.567-10.272-4.752-21.412-7.139-33.403-7.139H82.226c-22.65 0-42.018 8.042-58.102 24.126C8.042 76.613 0 95.978 0 118.629v237.543c0 22.647 8.042 42.014 24.125 58.098 16.084 16.088 35.452 24.13 58.102 24.13h237.541c22.647 0 42.017-8.042 58.101-24.13 16.085-16.084 24.134-35.45 24.134-58.098v-90.797c-.002-3.994-1.915-6.752-5.72-8.278z"/><path d="m467.95 93.216-31.409-31.409c-4.568-4.567-9.996-6.851-16.279-6.851-6.275 0-11.707 2.284-16.271 6.851L219.265 246.532l-75.084-75.089c-4.569-4.57-9.995-6.851-16.274-6.851-6.28 0-11.704 2.281-16.274 6.851l-31.405 31.405c-4.568 4.568-6.854 9.994-6.854 16.277 0 6.28 2.286 11.704 6.854 16.274l122.767 122.767c4.569 4.571 9.995 6.851 16.274 6.851 6.279 0 11.704-2.279 16.274-6.851l232.404-232.403c4.565-4.567 6.854-9.994 6.854-16.274s-2.283-11.706-6.851-16.273z"/></symbol><symbol id="icon-chevron-bottom-sharp" viewBox="0 0 135.467 67.733"><path d="M67.733 55.033 12.7 0H0l67.733 67.733L135.467 0h-12.7z"/></symbol><symbol id="icon-chevron-bottom" viewBox="0 0 330 180.001"><path d="m325.606 25.607-150.004 150a14.997 14.997 0 0 1-21.213 0l-149.996-150c-5.858-5.859-5.858-15.356 0-21.214 5.857-5.857 15.355-5.858 21.213 0l139.39 139.393L304.394 4.393A14.953 14.953 0 0 1 315 0a14.95 14.95 0 0 1 10.608 4.394c5.857 5.858 5.857 15.355-.001 21.213z"/></symbol><symbol id="icon-chevron-down" viewBox="0 0 551.13 551.13"><path d="M275.565 361.679 51.668 137.783H0l275.565 275.565L551.13 137.783h-51.668z"/></symbol><symbol id="icon-chevron-left-sharp" viewBox="0 0 67.733 135.467"><path d="M12.7 67.733 67.733 12.7V0L0 67.733l67.733 67.734v-12.7z"/></symbol><symbol id="icon-chevron-left" viewBox="0 0 180.001 330"><path d="m154.394 4.394-150 150.004a14.997 14.997 0 0 0 .001 21.213l150 149.996c5.858 5.858 15.355 5.858 21.213 0 5.857-5.857 5.858-15.355 0-21.213L36.215 165.004 175.608 25.607A14.953 14.953 0 0 0 180.001 15a14.95 14.95 0 0 0-4.394-10.607c-5.858-5.857-15.355-5.857-21.213 0z"/></symbol><symbol id="icon-chevron-right-sharp" viewBox="0 0 67.733 135.467"><path d="M55.033 67.734 0 122.767v12.7l67.733-67.733L0 0v12.7z"/></symbol><symbol id="icon-chevron-right" viewBox="0 0 180.001 330"><path d="m25.607 325.606 150-150.004a14.997 14.997 0 0 0 0-21.213l-150-149.996c-5.859-5.858-15.356-5.858-21.214 0-5.857 5.857-5.858 15.355 0 21.213l139.393 139.39L4.393 304.394A14.953 14.953 0 0 0 0 315a14.95 14.95 0 0 0 4.394 10.608c5.858 5.857 15.355 5.857 21.213-.001z" style="stroke-width:1"/></symbol><symbol id="icon-chevron-top-sharp" viewBox="0 0 135.467 67.733"><path d="M67.733 12.7 12.7 67.733H0L67.733 0l67.734 67.733h-12.7z"/></symbol><symbol id="icon-chevron-top" viewBox="0 0 330 180.001"><path d="m325.606 154.394-150.004-150a14.997 14.997 0 0 0-21.213.001l-149.996 150c-5.858 5.858-5.858 15.355 0 21.213 5.857 5.857 15.355 5.858 21.213 0l139.39-139.393 139.397 139.393A14.953 14.953 0 0 0 315 180.001a14.95 14.95 0 0 0 10.607-4.394c5.857-5.858 5.857-15.355 0-21.213z"/></symbol><symbol id="icon-cross" viewBox="0 0 24 24"><path fill="none" d="M0 0h24v24H0z"/><path d="m15.92 17.152-4-4-4.005 4a.752.752 0 1 1-1.066-1.061l4.005-4-4.005-4.01A.75.75 0 0 1 7.91 7.02l4.005 4.005 4-4.005a.75.75 0 1 1 1.061 1.061l-4 4.005 4 4a.75.75 0 0 1-1.061 1.061Z"/></symbol><symbol id="icon-door" viewBox="0 0 338.722 512"><path d="M238.863 52.833v15.544h84.314v375.246h-9.183V117.138H298.45v326.485h-59.587v15.544h99.859V52.833ZM.005 355.486h15.544v15.544H.005Z"/><path d="M0 54.494v283.372h15.545V66.717l193.509-46.951v472.468L15.545 445.283V389.68H0v67.826L224.598 512V0Z"/><path d="M169.123 254.446c-12.685 0-23.005 10.32-23.005 23.005 0 12.685 10.32 23.005 23.005 23.005 12.685.001 23.005-10.32 23.005-23.005 0-12.685-10.32-23.005-23.005-23.005zm-.001 30.466c-4.113.001-7.461-3.347-7.461-7.461 0-4.114 3.347-7.461 7.461-7.461 4.114 0 7.461 3.347 7.461 7.461 0 4.114-3.347 7.461-7.461 7.461zM298.454 83.98h15.544v15.544h-15.544z"/></symbol><symbol id="icon-double-chevron-left" viewBox="0 0 300 329.999"><path d="M51.213 165.004 190.607 25.607c5.857-5.858 5.857-15.355-.001-21.213-5.857-5.858-15.355-5.858-21.213.001l-150 150.004a14.995 14.995 0 0 0 .001 21.212l150 149.996A14.95 14.95 0 0 0 180 330a14.95 14.95 0 0 0 10.607-4.394c5.857-5.858 5.857-15.355-.001-21.213z" transform="translate(-15)"/><path d="M171.213 165.004 310.607 25.607c5.858-5.858 5.858-15.355 0-21.213-5.857-5.858-15.355-5.858-21.213.001l-150 150.004a14.999 14.999 0 0 0 .001 21.213l150 149.996A14.948 14.948 0 0 0 300 330a14.95 14.95 0 0 0 10.607-4.394c5.858-5.858 5.858-15.355 0-21.213z" transform="translate(-15)"/></symbol><symbol id="icon-double-chevron-right" viewBox="0 0 300 329.999"><path d="M51.213 165.004 190.607 25.607c5.857-5.858 5.857-15.355-.001-21.213-5.857-5.858-15.355-5.858-21.213.001l-150 150.004a14.995 14.995 0 0 0 .001 21.212l150 149.996A14.95 14.95 0 0 0 180 330a14.95 14.95 0 0 0 10.607-4.394c5.857-5.858 5.857-15.355-.001-21.213z" transform="matrix(-1 0 0 1 315 0)"/><path d="M171.213 165.004 310.607 25.607c5.858-5.858 5.858-15.355 0-21.213-5.857-5.858-15.355-5.858-21.213.001l-150 150.004a14.999 14.999 0 0 0 .001 21.213l150 149.996A14.948 14.948 0 0 0 300 330a14.95 14.95 0 0 0 10.607-4.394c5.858-5.858 5.858-15.355 0-21.213z" transform="matrix(-1 0 0 1 315 0)"/></symbol><symbol id="icon-email-filled" viewBox="0 0 490 328.2"><path d="m295.2 176.9-43.8 37.2c-3.5 2.9-8.6 2.9-12 0L195.6 177 16.7 328.2h456.6ZM0 11.3v305.6l180.1-152.8Z"/><path d="M16.7 0 245 193.7 473.3 0Zm293.2 164.1L490 316.9V11.3Z"/></symbol><symbol fill="#fff" id="icon-email-white" viewBox="0 0 512 512"><path d="M467 61H45C20.218 61 0 81.196 0 106v300c0 24.72 20.128 45 45 45h422c24.72 0 45-20.128 45-45V106c0-24.72-20.128-45-45-45zm-6.214 30L256.954 294.833 51.359 91h409.427zM30 399.788V112.069l144.479 143.24L30 399.788zM51.213 421l144.57-144.57 50.657 50.222c5.864 5.814 15.327 5.795 21.167-.046L317 277.213 460.787 421H51.213zM482 399.787 338.213 256 482 112.212v287.575z"/></symbol><symbol id="icon-email" viewBox="0 0 512 512"><path d="M467 61H45C20.218 61 0 81.196 0 106v300c0 24.72 20.128 45 45 45h422c24.72 0 45-20.128 45-45V106c0-24.72-20.128-45-45-45zm-6.214 30L256.954 294.833 51.359 91h409.427zM30 399.788V112.069l144.479 143.24L30 399.788zM51.213 421l144.57-144.57 50.657 50.222c5.864 5.814 15.327 5.795 21.167-.046L317 277.213 460.787 421H51.213zM482 399.787 338.213 256 482 112.212v287.575z"/></symbol><symbol style="enable-background:new 0 0 442.04 442.04" id="icon-eye" viewBox="0 0 442.04 442.04"><path d="M221.02 341.304c-49.708 0-103.206-19.44-154.71-56.22-38.502-27.494-62.266-54.733-63.259-55.881a12.5 12.5 0 0 1 0-16.367c.993-1.146 24.756-28.387 63.259-55.881 51.505-36.777 105.003-56.219 154.71-56.219 49.708 0 103.207 19.441 154.71 56.219 38.502 27.494 62.266 54.734 63.259 55.881a12.5 12.5 0 0 1 0 16.367c-.993 1.146-24.756 28.387-63.259 55.881-51.503 36.779-105.001 56.22-154.71 56.22zM29.638 221.021c9.61 9.799 27.747 27.03 51.694 44.071 32.83 23.361 83.714 51.212 139.688 51.212s106.859-27.851 139.688-51.212c23.944-17.038 42.082-34.271 51.694-44.071-9.609-9.799-27.747-27.03-51.694-44.071-32.829-23.362-83.714-51.212-139.688-51.212s-106.858 27.85-139.688 51.212c-23.944 17.038-42.082 34.269-51.694 44.071z"/><path d="M221.02 298.521c-42.734 0-77.5-34.767-77.5-77.5s34.766-77.5 77.5-77.5a77.436 77.436 0 0 1 51.048 19.188c5.193 4.549 5.715 12.446 1.166 17.639-4.549 5.193-12.447 5.714-17.639 1.166a52.448 52.448 0 0 0-34.576-12.993c-28.949 0-52.5 23.552-52.5 52.5s23.551 52.5 52.5 52.5c28.95 0 52.5-23.552 52.5-52.5 0-6.903 5.597-12.5 12.5-12.5s12.5 5.597 12.5 12.5c.002 42.733-34.765 77.5-77.499 77.5z"/><path d="M221.02 246.021c-13.785 0-25-11.215-25-25s11.215-25 25-25c13.786 0 25 11.215 25 25s-11.214 25-25 25z"/></symbol><symbol fill="#4267b2" id="icon-facebook-colored" viewBox="0 0 256.8 503.9"><path d="M169.3 503.5c-2.5.1-4.1.3-5.7.3-34.2 0-68.3-.1-102.5.1-4.8 0-6.1-1.3-6.1-6.1.1-79.6.1-159.3.1-238.9V252H0v-85h5.4c15 0 30-.1 45 .1 3.8 0 4.8-1.1 4.8-4.8-.2-22.3-.2-44.7 0-67 .1-15.6 2.6-30.8 9.8-44.9 10.3-19.9 26.6-32.8 47.2-40.8C129 3 146.7.6 164.5.3c29-.4 58-.2 87-.3 2.7 0 4.9-.1 4.9 3.7-.1 27.5-.1 55-.1 82.5 0 .3-.1.6-.5 1.9h-5.5c-18 0-36-.1-54 0-10.4 0-18.8 4.2-24.1 13.3-1.6 2.7-2.6 6.2-2.6 9.4-.3 17 0 34-.2 51 0 4 1.2 5.1 5.1 5.1 25-.2 50-.1 75-.1h7.3c-3.5 28.6-6.9 56.6-10.4 84.9h-77.1z"/></symbol><symbol id="icon-facebook" viewBox="0 0 67.733 135.467"><path d="M42.333 46.567V29.633a8.47 8.47 0 0 1 8.467-8.466h8.467V0H42.333c-14.029 0-25.4 11.37-25.4 25.4v21.167H0v21.166h16.933v67.734h25.4V67.733h16.934l8.466-21.166z"/></symbol><symbol id="icon-foursquare" viewBox="0 0 17 23.999"><path d="M0 2.161v20.336c0 .952.559 1.298.841 1.411.287.117 1.053.216 1.52-.333 5.954-7.004 6.056-7.121 6.056-7.121.143-.159.157-.145.314-.145h3.852c1.621 0 1.875-1.181 2.047-1.861l2.245-11.392C17.267 1.069 16.773 0 14.925 0H2.305C.573 0 0 1.327 0 2.161Zm2.668 1.257c0-.361.314-.778.767-.778h10.117c.378 0 .72.361.624.82l-.003-.001-.526 2.798c-.055.305-.439.619-.78.619H7.95c-.555 0-.952.389-.952.952v.609c0 .563.397.966.952.966h4.176c.383 0 .767.431.684.853a376.73 376.73 0 0 0-.526 2.756c-.041.23-.314.633-.781.633H8.108c-.624 0-.794.084-1.224.591 0 0-.411.534-4.134 5.078-.041.042-.083.028-.083-.014V3.418Z"/></symbol><symbol fill="#fff" style="enable-background:new 0 0 508 508" id="icon-globe-white" viewBox="0 0 508 508"><path d="M254 0C146.7 0 0 81.1 0 254c0 168.5 141.1 254 254 254 193.7 0 254-169.7 254-254C508 129.6 412.8 0 254 0zm-58.9 23.9c-26.5 22.6-48.5 60-62.7 106.4-18.4-10.9-35.3-24.4-50.3-40.1 31-32.5 70.2-55.3 113-66.3zM71.2 102.4c16.8 17.5 35.9 32.4 56.7 44.2-7.8 30.3-12.4 63.9-13 99.2H16.6c1.8-52.7 21-103 54.6-143.4zm0 303.2c-33.7-40.4-52.8-90.7-54.6-143.4h98.3c.6 35.4 5.2 68.9 13 99.2-20.7 11.9-39.8 26.7-56.7 44.2zm10.9 12.3c15-15.7 31.9-29.2 50.3-40.1 14.2 46.3 36.2 83.8 62.7 106.4-42.8-11.1-82-33.9-113-66.3zM245.8 491c-42.6-5.4-79.3-53-99.1-121.2 30.6-15.5 64.4-24.2 99.1-25.5V491zm0-163c-36.2 1.2-71.4 10.1-103.3 25.7-6.7-28-10.7-58.9-11.3-91.5h114.6V328zm0-82.2H131.2c.6-32.6 4.6-63.5 11.3-91.5 32 15.6 67.2 24.5 103.3 25.7v65.8zm0-82.1c-34.8-1.2-68.5-10-99.1-25.5C166.5 69.9 203.2 22.4 245.8 17v146.7zm191-61.3c33.6 40.4 52.8 90.7 54.6 143.4h-98.2c-.6-35.4-5.2-68.9-13-99.2 20.7-11.9 39.8-26.7 56.6-44.2zm-10.9-12.3c-15 15.7-31.9 29.2-50.3 40.1-14.2-46.3-36.2-83.7-62.7-106.4 42.8 11.1 82 33.9 113 66.3zM262.2 17c42.6 5.4 79.3 53 99.1 121.2-30.6 15.5-64.3 24.2-99.1 25.5V17zm0 163c36.2-1.2 71.4-10.1 103.3-25.7 6.7 28 10.7 58.9 11.3 91.5H262.2V180zm0 82.2h114.6c-.6 32.6-4.6 63.5-11.3 91.5A251.24 251.24 0 0 0 262.2 328v-65.8zm0 228.8V344.3c34.8 1.2 68.5 10 99.1 25.5-19.8 68.3-56.5 115.8-99.1 121.2zm50.7-6.9c26.5-22.6 48.5-60 62.7-106.4 18.4 10.9 35.3 24.4 50.3 40.1-31 32.5-70.2 55.3-113 66.3zm123.9-78.5c-16.8-17.5-35.9-32.3-56.6-44.2 7.8-30.3 12.4-63.9 13-99.2h98.2c-1.8 52.7-21 103-54.6 143.4z"/></symbol><symbol id="icon-google" viewBox="0 0 24 24"><path fill="#EA4335" d="M5.266 9.765A7.077 7.077 0 0 1 12 4.909c1.69 0 3.218.6 4.418 1.582L19.91 3C17.782 1.145 15.055 0 12 0 7.27 0 3.198 2.698 1.24 6.65l4.026 3.115Z"/><path fill="#34A853" d="M16.04 18.013c-1.09.703-2.474 1.078-4.04 1.078a7.077 7.077 0 0 1-6.723-4.823l-4.04 3.067A11.965 11.965 0 0 0 12 24c2.933 0 5.735-1.043 7.834-3l-3.793-2.987Z"/><path fill="#4A90E2" d="M19.834 21c2.195-2.048 3.62-5.096 3.62-9 0-.71-.109-1.473-.272-2.182H12v4.637h6.436c-.317 1.559-1.17 2.766-2.395 3.558L19.834 21Z"/><path fill="#FBBC05" d="M5.277 14.268A7.12 7.12 0 0 1 4.909 12c0-.782.125-1.533.357-2.235L1.24 6.65A11.934 11.934 0 0 0 0 12c0 1.92.445 3.73 1.237 5.335l4.04-3.067Z"/></symbol><symbol id="icon-heart-filled" viewBox="0 0 288.2 269.687"><path d="M203.325 9.256c-22.523 0-43.653 8.941-59.226 24.104-15.572-15.164-36.702-24.104-59.225-24.104C38.074 9.256 0 47.33 0 94.129c0 37.746 13.758 71.201 43.299 105.288 23.655 27.295 87.03 70.171 89.717 71.983L144 278.809v.134l.1-.067.1.067v-.134l10.984-7.409c2.687-1.813 66.062-44.688 89.717-71.983C274.442 165.33 288.2 131.875 288.2 94.129c-.001-46.799-38.075-84.873-84.875-84.873Z" transform="translate(0 -9.256)"/></symbol><symbol id="icon-heart" viewBox="0 0 288.2 269.687"><path d="M203.325 9.256c-22.523 0-43.653 8.941-59.226 24.104-15.572-15.164-36.702-24.104-59.225-24.104C38.074 9.256 0 47.33 0 94.129c0 37.746 13.758 71.201 43.299 105.288 23.655 27.295 87.03 70.171 89.717 71.983L144 278.809v.134l.1-.067.1.067v-.134l10.984-7.409c2.687-1.813 66.062-44.688 89.717-71.983C274.442 165.33 288.2 131.875 288.2 94.129c-.001-46.799-38.075-84.873-84.875-84.873Zm11.348 163.964c-13.887 16.025-49.144 42.159-70.573 57.227-21.43-15.068-56.686-41.203-70.573-57.227C50.653 146.827 40 121.695 40 94.129c0-24.743 20.131-44.873 44.874-44.873 17.736 0 31.308 6.595 45.492 21.881 4.708 5.074 12.32 15.429 13.634 17.227v.273l.1-.137.1.137v-.273c1.314-1.798 8.925-12.153 13.634-17.227 14.185-15.286 27.756-21.881 45.492-21.881 24.743 0 44.874 20.13 44.874 44.873-.001 27.566-10.654 52.698-33.527 79.091z" transform="translate(0 -9.256)"/></symbol><symbol fill="#fff" id="icon-home-white" viewBox="0 0 460.298 460.297"><path d="M230.149 120.939 65.986 256.274c0 .191-.048.472-.144.855-.094.38-.144.656-.144.852v137.041c0 4.948 1.809 9.236 5.426 12.847 3.616 3.613 7.898 5.431 12.847 5.431h109.63V303.664h73.097v109.64h109.629c4.948 0 9.236-1.814 12.847-5.435 3.617-3.607 5.432-7.898 5.432-12.847V257.981c0-.76-.104-1.334-.288-1.707L230.149 120.939z"/><path d="M457.122 225.438 394.6 173.476V56.989c0-2.663-.856-4.853-2.574-6.567-1.704-1.712-3.894-2.568-6.563-2.568h-54.816c-2.666 0-4.855.856-6.57 2.568-1.711 1.714-2.566 3.905-2.566 6.567v55.673l-69.662-58.245c-6.084-4.949-13.318-7.423-21.694-7.423-8.375 0-15.608 2.474-21.698 7.423L3.172 225.438c-1.903 1.52-2.946 3.566-3.14 6.136-.193 2.568.472 4.811 1.997 6.713l17.701 21.128c1.525 1.712 3.521 2.759 5.996 3.142 2.285.192 4.57-.476 6.855-1.998L230.149 95.817l197.57 164.741c1.526 1.328 3.521 1.991 5.996 1.991h.858c2.471-.376 4.463-1.43 5.996-3.138l17.703-21.125c1.522-1.906 2.189-4.145 1.991-6.716-.195-2.563-1.242-4.609-3.141-6.132z"/></symbol><symbol id="icon-house-2" viewBox="0 0 749 508.646"><path d="m145.9 366.377-28.6-34.7 257.2-211.5 257.2 211.5-28.601 34.7-228.6-188zM645 485.778h-74v71.5H179v-71.5h-75L0 628.677h41.5c1.9 0 3.8.102 5.7.102h378.4c92.102 0 184.102.1 276.2 0 1.9 0 3.8 0 5.7-.102H749ZM374.5 221.777l166 137.5v172.6h-332v-173.1zm-2.5 186.6h-61.5v57.5H372Zm0-65h-61.5v57.5H372Zm8 57.5h61.5v-57.5H380Zm0 65h61.5v-57.5H380Z" transform="translate(0 -120.177)"/></symbol><symbol id="icon-house" viewBox="0 0 512 395.314"><path d="M464.421 422.31v-42.275c17.564-6.416 30.135-23.289 30.135-43.045 0-25.259-20.549-45.808-45.808-45.808s-45.808 20.549-45.808 45.808c0 19.756 12.571 36.63 30.135 43.045v42.276h-46.206V271.157h96.555L256 58.343 28.578 271.157h96.555V422.31H78.236v-42.276c17.564-6.416 30.135-23.289 30.135-43.045 0-25.259-20.549-45.808-45.808-45.808s-45.808 20.549-45.808 45.808c0 19.756 12.571 36.63 30.135 43.045v42.276H0v31.347h512V422.31ZM62.562 351.451c-7.974 0-14.461-6.488-14.461-14.461 0-7.974 6.488-14.461 14.461-14.461 7.974 0 14.461 6.488 14.461 14.461s-6.487 14.461-14.461 14.461zm217.783 70.86h-48.69v-50.159c0-13.424 10.921-24.345 24.345-24.345s24.345 10.921 24.345 24.345zm75.175 0h-43.828v-50.159c0-30.709-24.984-55.692-55.692-55.692s-55.692 24.983-55.692 55.692v50.159H156.48v-159.89l7.467-6.781L256 172.036l92.053 83.604 7.467 6.781zm21.729-182.501L256 129.69 134.751 239.81h-26.796L256 101.274 404.045 239.81Zm71.498 111.641c-7.974 0-14.461-6.488-14.461-14.461 0-7.974 6.488-14.461 14.461-14.461 7.974 0 14.461 6.488 14.461 14.461s-6.487 14.461-14.461 14.461z" transform="translate(0 -58.343)"/><path d="M230.4 252.176h51.2v31.347h-51.2z" transform="translate(0 -58.343)"/></symbol><symbol id="icon-instagram-colored" viewBox="0 0 20 20"><path fill="#C13584" d="M10 7.52A2.48 2.48 0 1 0 12.48 10 2.48 2.48 0 0 0 10 7.52Zm9.93-2.45a6.53 6.53 0 0 0-.42-2.26A4 4 0 0 0 17.19.49a6.53 6.53 0 0 0-2.26-.42C13.64 0 13.26 0 10 0S6.36 0 5.07.07a6.53 6.53 0 0 0-2.26.42A4 4 0 0 0 .49 2.81a6.53 6.53 0 0 0-.42 2.26C0 6.36 0 6.74 0 10s0 3.64.07 4.93a6.86 6.86 0 0 0 .42 2.27 3.94 3.94 0 0 0 .91 1.4 3.89 3.89 0 0 0 1.41.91 6.53 6.53 0 0 0 2.26.42C6.36 20 6.74 20 10 20s3.64 0 4.93-.07a6.53 6.53 0 0 0 2.26-.42 3.89 3.89 0 0 0 1.41-.91 3.94 3.94 0 0 0 .91-1.4 6.6 6.6 0 0 0 .42-2.27C20 13.64 20 13.26 20 10s0-3.64-.07-4.93Zm-2.54 8a5.73 5.73 0 0 1-.39 1.8A3.86 3.86 0 0 1 14.87 17a5.73 5.73 0 0 1-1.81.35H6.94A5.73 5.73 0 0 1 5.13 17a3.51 3.51 0 0 1-1.31-.86A3.51 3.51 0 0 1 3 14.87a5.49 5.49 0 0 1-.34-1.81V6.94A5.49 5.49 0 0 1 3 5.13a3.51 3.51 0 0 1 .86-1.31A3.59 3.59 0 0 1 5.13 3a5.73 5.73 0 0 1 1.81-.35h6.12a5.73 5.73 0 0 1 1.81.35 3.51 3.51 0 0 1 1.31.86A3.51 3.51 0 0 1 17 5.13a5.73 5.73 0 0 1 .35 1.81V10c0 2.06.07 2.27.04 3.06zm-1.6-7.44a2.38 2.38 0 0 0-1.41-1.41A4 4 0 0 0 13 4H7a4 4 0 0 0-1.38.26 2.38 2.38 0 0 0-1.41 1.36A4.27 4.27 0 0 0 4 7v6a4.27 4.27 0 0 0 .26 1.38 2.38 2.38 0 0 0 1.41 1.41 4.27 4.27 0 0 0 1.33.26h6a4 4 0 0 0 1.38-.26 2.38 2.38 0 0 0 1.41-1.41 4 4 0 0 0 .26-1.38V7a3.78 3.78 0 0 0-.26-1.38ZM10 13.82A3.81 3.81 0 0 1 6.19 10 3.82 3.82 0 1 1 10 13.82Zm4-6.89a.9.9 0 0 1 0-1.79.9.9 0 0 1 0 1.79z"/></symbol><symbol id="icon-instagram" viewBox="0 0 135.467 135.467"><path d="M93.133 0h-50.8C18.957 0 0 18.957 0 42.333v50.8c0 23.377 18.957 42.334 42.333 42.334h50.8c23.377 0 42.334-18.957 42.334-42.334v-50.8C135.467 18.957 116.51 0 93.133 0zm29.634 93.133c0 16.341-13.293 29.634-29.634 29.634h-50.8c-16.34 0-29.633-13.293-29.633-29.634v-50.8c0-16.34 13.293-29.633 29.633-29.633h50.8c16.341 0 29.634 13.293 29.634 29.633z"/><path d="M67.733 33.867c-18.703 0-33.866 15.163-33.866 33.866S49.03 101.6 67.733 101.6 101.6 86.436 101.6 67.733c0-18.703-15.164-33.866-33.867-33.866zm0 55.033c-11.667 0-21.166-9.5-21.166-21.167 0-11.675 9.5-21.166 21.166-21.166 11.667 0 21.167 9.49 21.167 21.166C88.9 79.4 79.4 88.9 67.733 88.9z"/><circle r="17.056" cy="118.4" cx="393.6" transform="scale(.26458)"/></symbol><symbol id="icon-interface" viewBox="0 0 607.916 607.916"><path d="M49.46 279.563h186.75c26.997 0 48.96-21.963 48.96-48.96V51.809c0-26.997-21.963-48.96-48.96-48.96H49.46C22.463 2.849.5 24.812.5 51.809v178.794c0 26.998 21.963 48.96 48.96 48.96zM43.34 51.809a6.127 6.127 0 0 1 6.12-6.12h186.75a6.127 6.127 0 0 1 6.12 6.12v178.794a6.127 6.127 0 0 1-6.12 6.12H49.46a6.127 6.127 0 0 1-6.12-6.12V51.809z"/><path d="M236.21 280.063H49.46c-27.272 0-49.46-22.188-49.46-49.46V51.809c0-27.272 22.188-49.46 49.46-49.46h186.75c27.272 0 49.46 22.188 49.46 49.46v178.794c0 27.273-22.187 49.46-49.46 49.46zM49.46 3.349C22.739 3.349 1 25.088 1 51.809v178.794c0 26.721 21.739 48.46 48.46 48.46h186.75c26.721 0 48.46-21.739 48.46-48.46V51.809c0-26.721-21.739-48.46-48.46-48.46H49.46zm186.75 233.875H49.46c-3.65 0-6.62-2.97-6.62-6.62V51.809c0-3.65 2.97-6.62 6.62-6.62h186.75c3.65 0 6.62 2.97 6.62 6.62v178.794a6.627 6.627 0 0 1-6.62 6.621zM49.46 46.189a5.626 5.626 0 0 0-5.62 5.62v178.794a5.626 5.626 0 0 0 5.62 5.62h186.75a5.626 5.626 0 0 0 5.62-5.62V51.809a5.626 5.626 0 0 0-5.62-5.62H49.46zM558.456 1.625H374.989c-26.996 0-48.96 21.963-48.96 48.96v19.323c0 26.997 21.964 48.96 48.96 48.96h183.467c26.996 0 48.96-21.963 48.96-48.96V50.585c0-26.997-21.964-48.96-48.96-48.96zm6.12 68.283a6.127 6.127 0 0 1-6.12 6.12H374.989a6.128 6.128 0 0 1-6.12-6.12V50.585a6.127 6.127 0 0 1 6.12-6.12h183.467a6.128 6.128 0 0 1 6.12 6.12v19.323z"/><path d="M558.456 119.368H374.989c-27.272 0-49.46-22.188-49.46-49.46V50.585c0-27.272 22.188-49.46 49.46-49.46h183.467c27.272 0 49.46 22.188 49.46 49.46v19.323c0 27.273-22.187 49.46-49.46 49.46zM374.989 2.125c-26.721 0-48.46 21.739-48.46 48.46v19.323c0 26.721 21.739 48.46 48.46 48.46h183.467c26.721 0 48.46-21.739 48.46-48.46V50.585c0-26.721-21.739-48.46-48.46-48.46H374.989zm183.467 74.403H374.989c-3.65 0-6.62-2.97-6.62-6.62V50.585c0-3.65 2.97-6.62 6.62-6.62h183.467c3.65 0 6.62 2.97 6.62 6.62v19.323c0 3.651-2.97 6.62-6.62 6.62zM374.989 44.965a5.626 5.626 0 0 0-5.62 5.62v19.323a5.626 5.626 0 0 0 5.62 5.62h183.467a5.626 5.626 0 0 0 5.62-5.62V50.585a5.626 5.626 0 0 0-5.62-5.62H374.989zM558.456 162.32H374.989c-26.996 0-48.96 21.963-48.96 48.96v19.323c0 26.997 21.964 48.96 48.96 48.96h183.467c26.996 0 48.96-21.963 48.96-48.96V211.28c0-26.996-21.964-48.96-48.96-48.96zm6.12 68.284a6.127 6.127 0 0 1-6.12 6.12H374.989a6.128 6.128 0 0 1-6.12-6.12V211.28a6.127 6.127 0 0 1 6.12-6.12h183.467a6.128 6.128 0 0 1 6.12 6.12v19.324z"/><path d="M558.456 280.063H374.989c-27.272 0-49.46-22.188-49.46-49.46V211.28c0-27.272 22.188-49.46 49.46-49.46h183.467c27.272 0 49.46 22.188 49.46 49.46v19.323c0 27.273-22.187 49.46-49.46 49.46zM374.989 162.82c-26.721 0-48.46 21.739-48.46 48.46v19.323c0 26.721 21.739 48.46 48.46 48.46h183.467c26.721 0 48.46-21.739 48.46-48.46V211.28c0-26.721-21.739-48.46-48.46-48.46H374.989zm183.467 74.404H374.989c-3.65 0-6.62-2.97-6.62-6.62V211.28c0-3.65 2.97-6.62 6.62-6.62h183.467c3.65 0 6.62 2.97 6.62 6.62v19.323a6.628 6.628 0 0 1-6.62 6.621zM374.989 205.66a5.626 5.626 0 0 0-5.62 5.62v19.323a5.626 5.626 0 0 0 5.62 5.62h183.467a5.626 5.626 0 0 0 5.62-5.62V211.28a5.626 5.626 0 0 0-5.62-5.62H374.989zM.5 557.332c0 26.996 21.963 48.959 48.96 48.959h186.75c26.997 0 48.96-21.963 48.96-48.959V378.537c0-26.996-21.963-48.959-48.96-48.959H49.46C22.463 329.578.5 351.541.5 378.537v178.795zm42.84-178.795a6.126 6.126 0 0 1 6.12-6.119h186.75a6.126 6.126 0 0 1 6.12 6.119v178.795a6.126 6.126 0 0 1-6.12 6.119H49.46a6.126 6.126 0 0 1-6.12-6.119V378.537z"/><path d="M236.21 606.791H49.46C22.188 606.791 0 584.604 0 557.332V378.537c0-27.271 22.188-49.459 49.46-49.459h186.75c27.272 0 49.46 22.188 49.46 49.459v178.795c0 27.272-22.187 49.459-49.46 49.459zM49.46 330.078C22.739 330.078 1 351.816 1 378.537v178.795c0 26.721 21.739 48.459 48.46 48.459h186.75c26.721 0 48.46-21.738 48.46-48.459V378.537c0-26.721-21.739-48.459-48.46-48.459H49.46zm186.75 233.873H49.46c-3.65 0-6.62-2.97-6.62-6.619V378.537a6.628 6.628 0 0 1 6.62-6.619h186.75c3.65 0 6.62 2.97 6.62 6.619v178.795c.001 3.649-2.969 6.619-6.62 6.619zM49.46 372.918a5.626 5.626 0 0 0-5.62 5.619v178.795a5.625 5.625 0 0 0 5.62 5.619h186.75a5.626 5.626 0 0 0 5.62-5.619V378.537a5.625 5.625 0 0 0-5.62-5.619H49.46zM558.456 329.578H374.989c-26.996 0-48.96 21.963-48.96 48.959v19.324c0 26.996 21.964 48.959 48.96 48.959h183.467c26.996 0 48.96-21.963 48.96-48.959v-19.324c0-26.996-21.964-48.959-48.96-48.959zm6.12 68.283a6.127 6.127 0 0 1-6.12 6.119H374.989a6.127 6.127 0 0 1-6.12-6.119v-19.324a6.126 6.126 0 0 1 6.12-6.119h183.467a6.126 6.126 0 0 1 6.12 6.119v19.324z"/><path d="M558.456 447.32H374.989c-27.272 0-49.46-22.188-49.46-49.459v-19.324c0-27.271 22.188-49.459 49.46-49.459h183.467c27.272 0 49.46 22.188 49.46 49.459v19.324c0 27.272-22.187 49.459-49.46 49.459zM374.989 330.078c-26.721 0-48.46 21.738-48.46 48.459v19.324c0 26.721 21.739 48.459 48.46 48.459h183.467c26.721 0 48.46-21.738 48.46-48.459v-19.324c0-26.721-21.739-48.459-48.46-48.459H374.989zm183.467 74.402H374.989c-3.65 0-6.62-2.97-6.62-6.619v-19.324a6.628 6.628 0 0 1 6.62-6.619h183.467c3.65 0 6.62 2.97 6.62 6.619v19.324c0 3.65-2.97 6.619-6.62 6.619zm-183.467-31.562a5.626 5.626 0 0 0-5.62 5.619v19.324a5.625 5.625 0 0 0 5.62 5.619h183.467a5.626 5.626 0 0 0 5.62-5.619v-19.324a5.625 5.625 0 0 0-5.62-5.619H374.989zM558.456 488.438H374.989c-26.996 0-48.96 21.963-48.96 48.959v19.324c0 26.996 21.964 48.959 48.96 48.959h183.467c26.996 0 48.96-21.963 48.96-48.959v-19.324c0-26.997-21.964-48.959-48.96-48.959zm6.12 68.283a6.127 6.127 0 0 1-6.12 6.119H374.989a6.127 6.127 0 0 1-6.12-6.119v-19.324a6.126 6.126 0 0 1 6.12-6.119h183.467a6.126 6.126 0 0 1 6.12 6.119v19.324z"/><path d="M558.456 606.18H374.989c-27.272 0-49.46-22.188-49.46-49.459v-19.324c0-27.271 22.188-49.459 49.46-49.459h183.467c27.272 0 49.46 22.188 49.46 49.459v19.324c0 27.271-22.187 49.459-49.46 49.459zM374.989 488.938c-26.721 0-48.46 21.738-48.46 48.459v19.324c0 26.721 21.739 48.459 48.46 48.459h183.467c26.721 0 48.46-21.738 48.46-48.459v-19.324c0-26.721-21.739-48.459-48.46-48.459H374.989zm183.467 74.402H374.989c-3.65 0-6.62-2.97-6.62-6.619v-19.324a6.628 6.628 0 0 1 6.62-6.619h183.467c3.65 0 6.62 2.97 6.62 6.619v19.324a6.628 6.628 0 0 1-6.62 6.619zm-183.467-31.563a5.626 5.626 0 0 0-5.62 5.619v19.324a5.625 5.625 0 0 0 5.62 5.619h183.467a5.626 5.626 0 0 0 5.62-5.619v-19.324a5.625 5.625 0 0 0-5.62-5.619H374.989z"/></symbol><symbol id="icon-linkedin-colored" viewBox="0 0 259.4 259"><style id="style353"></style><g id="XMLID_184_" transform="translate(-126.3 -203)"><path fill="#007bb6" d="M130.5 289h53.8v173h-53.8zm27-86c17.2 0 31.2 14 31.2 31.2s-14 31.2-31.2 31.2c-17.3 0-31.2-14-31.2-31.2s13.9-31.2 31.2-31.2" id="XMLID_195_"/><path fill="#007bb6" d="M218.1 289h51.5v23.7h.7c7.2-13.6 24.7-27.9 50.9-27.9 54.4 0 64.5 35.8 64.5 82.4V462H332v-84.1c0-20.1-.3-45.9-27.9-45.9-28 0-32.2 21.9-32.2 44.4V462h-53.7V289Z" id="XMLID_192_"/></g></symbol><symbol id="icon-linkedin" viewBox="0 0 259.4 259"><path d="M130.5 289h53.8v173h-53.8zm27-86c17.2 0 31.2 14 31.2 31.2s-14 31.2-31.2 31.2c-17.3 0-31.2-14-31.2-31.2s13.9-31.2 31.2-31.2m60.6 86h51.5v23.7h.7c7.2-13.6 24.7-27.9 50.9-27.9 54.4 0 64.5 35.8 64.5 82.4V462H332v-84.1c0-20.1-.3-45.9-27.9-45.9-28 0-32.2 21.9-32.2 44.4V462h-53.7V289Z" transform="translate(-126.3 -203)"/></symbol><symbol id="icon-magnifier" viewBox="0 0 16 16"><path fill="none" d="M0 0h16v16H0z"/><path d="m15.708 13.587-3.675-3.675a6.5 6.5 0 1 0-2.121 2.121l3.675 3.675a1.003 1.003 0 0 0 1.414 0l.707-.707a1.003 1.003 0 0 0 0-1.414zM3.318 9.682C2.468 8.832 2 7.702 2 6.5s.468-2.332 1.318-3.182S5.298 2 6.5 2s2.332.468 3.182 1.318C10.532 4.168 11 5.298 11 6.5s-.468 2.332-1.318 3.182C8.832 10.532 7.702 11 6.5 11s-2.332-.468-3.182-1.318z"/></symbol><symbol fill="#fff" style="enable-background:new 0 0 512 512" id="icon-mobile-white" viewBox="0 0 512 512"><path d="M298.667 25.6h-85.333a8.536 8.536 0 0 0-8.533 8.533 8.536 8.536 0 0 0 8.533 8.533h85.333a8.536 8.536 0 0 0 8.533-8.533 8.536 8.536 0 0 0-8.533-8.533zM358.4 25.6h-8.533a8.536 8.536 0 0 0-8.533 8.533 8.536 8.536 0 0 0 8.533 8.533h8.533a8.536 8.536 0 0 0 8.533-8.533A8.536 8.536 0 0 0 358.4 25.6zM266.598 435.2H245.41c-12.979 0-23.543 10.564-23.543 23.543v4.122c0 12.979 10.564 23.535 23.535 23.535h21.188c12.979 0 23.543-10.556 23.543-23.535v-4.122c0-12.979-10.564-23.543-23.535-23.543zm6.469 27.665a6.475 6.475 0 0 1-6.468 6.468H245.41c-3.575 0-6.477-2.901-6.477-6.468v-4.122a6.48 6.48 0 0 1 6.477-6.477h21.18a6.478 6.478 0 0 1 6.477 6.477v4.122z"/><path d="M370.227 0H141.781c-17.007 0-30.848 13.841-30.848 30.848v450.304c0 17.007 13.841 30.848 30.848 30.848h228.437c17.007 0 30.848-13.841 30.848-30.839V30.848C401.067 13.841 387.226 0 370.227 0zM384 481.152c0 7.595-6.178 13.781-13.773 13.781H141.781c-7.603 0-13.781-6.187-13.781-13.773V30.848c0-7.595 6.178-13.781 13.781-13.781h228.437c7.603 0 13.781 6.187 13.781 13.781v450.304z"/><path d="M392.533 51.2H119.467a8.536 8.536 0 0 0-8.533 8.533v358.4a8.536 8.536 0 0 0 8.533 8.533h273.067a8.536 8.536 0 0 0 8.533-8.533v-358.4c0-4.71-3.823-8.533-8.534-8.533zM384 409.6H128V68.267h256V409.6z"/></symbol><symbol id="icon-mobile" viewBox="0 0 76 128"><path d="M65 0H11A11 11 0 0 0 0 11v106a11 11 0 0 0 11 11h54a11 11 0 0 0 11-11V11A11 11 0 0 0 65 0ZM6 22.69h64v76.89H6ZM11 6h54a5 5 0 0 1 5 5v5.69H6V11a5 5 0 0 1 5-5Zm54 116H11a5 5 0 0 1-5-5v-11.42h64V117a5 5 0 0 1-5 5z"/><circle cx="38" cy="113.91" r="6"/><path d="M30.13 14.22h15.75a3 3 0 1 0 0-6H30.13a3 3 0 1 0 0 6z"/></symbol><symbol fill="#fff" id="icon-person-white" viewBox="0 0 482.9 482.9"><path d="M239.7 260.2h3.2c29.3-.5 53-10.8 70.5-30.5 38.5-43.4 32.1-117.8 31.4-124.9-2.5-53.3-27.7-78.8-48.5-90.7C280.8 5.2 262.7.4 242.5 0h-1.7c-11.1 0-32.9 1.8-53.8 13.7-21 11.9-46.6 37.4-49.1 91.1-.7 7.1-7.1 81.5 31.4 124.9 17.4 19.7 41.1 30 70.4 30.5zm-75.1-152.9c0-.3.1-.6.1-.8 3.3-71.7 54.2-79.4 76-79.4h1.2c27 .6 72.9 11.6 76 79.4 0 .3 0 .6.1.8.1.7 7.1 68.7-24.7 104.5-12.6 14.2-29.4 21.2-51.5 21.4h-1c-22-.2-38.9-7.2-51.4-21.4-31.7-35.6-24.9-103.9-24.8-104.5z"/><path d="M446.8 383.6v-.3c0-.8-.1-1.6-.1-2.5-.6-19.8-1.9-66.1-45.3-80.9-.3-.1-.7-.2-1-.3-45.1-11.5-82.6-37.5-83-37.8-6.1-4.3-14.5-2.8-18.8 3.3-4.3 6.1-2.8 14.5 3.3 18.8 1.7 1.2 41.5 28.9 91.3 41.7 23.3 8.3 25.9 33.2 26.6 56 0 .9 0 1.7.1 2.5.1 9-.5 22.9-2.1 30.9-16.2 9.2-79.7 41-176.3 41-96.2 0-160.1-31.9-176.4-41.1-1.6-8-2.3-21.9-2.1-30.9 0-.8.1-1.6.1-2.5.7-22.8 3.3-47.7 26.6-56 49.8-12.8 89.6-40.6 91.3-41.7 6.1-4.3 7.6-12.7 3.3-18.8-4.3-6.1-12.7-7.6-18.8-3.3-.4.3-37.7 26.3-83 37.8-.4.1-.7.2-1 .3-43.4 14.9-44.7 61.2-45.3 80.9 0 .9 0 1.7-.1 2.5v.3c-.1 5.2-.2 31.9 5.1 45.3 1 2.6 2.8 4.8 5.2 6.3 3 2 74.9 47.8 195.2 47.8s192.2-45.9 195.2-47.8c2.3-1.5 4.2-3.7 5.2-6.3 5-13.3 4.9-40 4.8-45.2z"/></symbol><symbol id="icon-phone" viewBox="0 0 402.038 402.04"><g data-name="1"><path d="M348.73 450.06a198.63 198.63 0 0 1-46.4-5.85c-52.43-12.65-106.42-44.74-152-90.36s-77.71-99.62-90.36-152c-13.32-55.1-3.82-102.24 26.72-132.78l8.72-8.72a42.2 42.2 0 0 1 59.62 0l50.11 50.1a42.18 42.18 0 0 1 0 59.62l-29.6 29.59c14.19 24.9 33.49 49.82 56.3 72.63 22.81 22.81 47.75 42.12 72.64 56.31l29.59-29.6a42.15 42.15 0 0 1 59.62 0l50.1 50.1a42.16 42.16 0 0 1 0 59.61l-8.73 8.72c-21.53 21.57-51.33 32.63-86.33 32.63ZM125.22 78a12 12 0 0 0-8.59 3.56l-8.73 8.72c-22.87 22.87-29.55 60-18.81 104.49 11.37 47.13 40.64 96.1 82.41 137.86 41.77 41.76 90.73 71 137.87 82.41 44.5 10.74 81.61 4.06 104.48-18.81l8.72-8.72a12.16 12.16 0 0 0 0-17.19l-50.09-50.1a12.16 12.16 0 0 0-17.19 0l-37.51 37.51a15 15 0 0 1-17.5 2.72c-30.75-15.9-61.75-39.05-89.65-66.95-27.9-27.9-51-58.88-66.94-89.63a15 15 0 0 1 2.71-17.5l37.52-37.51a12.16 12.16 0 0 0 0-17.19l-50.1-50.11a12.07 12.07 0 0 0-8.6-3.56Z" transform="translate(-54.094 -48.02)"/><path d="M364.75 269.73a15 15 0 0 1-15-15 99.37 99.37 0 0 0-99.25-99.26 15 15 0 0 1 0-30c71.27 0 129.25 58 129.25 129.26a15 15 0 0 1-15 15z" transform="translate(-54.094 -48.02)"/><path d="M428.15 269.73a15 15 0 0 1-15-15c0-89.69-73-162.66-162.65-162.66a15 15 0 0 1 0-30c106.23 0 192.65 86.43 192.65 192.66a15 15 0 0 1-15 15z" transform="translate(-54.094 -48.02)"/></g></symbol><symbol id="icon-pin-filled" viewBox="0 0 333.488 492.451"><path d="M166.699 0C47.613 0-19.949 102.676 5.238 211.82 23.176 289.542 131.497 492.451 166.7 492.451c32.892 0 143.243-202.975 161.463-280.631C353.514 103.74 286.483 0 166.699 0Zm.051 224.97c-34.38 0-62.244-27.863-62.244-62.244s27.864-62.244 62.244-62.244c34.38 0 62.244 27.863 62.244 62.244S201.13 224.97 166.75 224.97z"/></symbol><symbol id="icon-pin" viewBox="0 0 360 512"><path d="M180 0C80.748 0 0 80.748 0 180c0 33.534 9.289 66.26 26.869 94.652l142.885 230.257A15 15 0 0 0 182.499 512h.119a14.997 14.997 0 0 0 12.75-7.292L334.611 272.22C351.221 244.428 360 212.539 360 180 360 80.748 279.252 0 180 0Zm128.866 256.818L182.272 468.186 52.367 258.846C37.734 235.214 29.8 207.95 29.8 180 29.8 97.29 97.29 29.8 180 29.8S330.1 97.29 330.1 180c0 27.121-7.411 53.688-21.234 76.818z"/><path d="M180 90c-49.626 0-90 40.374-90 90 0 49.309 39.717 90 90 90 50.903 0 90-41.233 90-90 0-49.626-40.374-90-90-90zm0 150.2c-33.257 0-60.2-27.033-60.2-60.2 0-33.084 27.116-60.2 60.2-60.2s60.1 27.116 60.1 60.2c0 32.683-26.316 60.2-60.1 60.2z"/></symbol><symbol id="icon-pool" viewBox="0 0 20 18"><path d="M20 18c-1.11 0-1.73-.37-2.18-.64-.37-.22-.6-.36-1.15-.36-.56 0-.78.13-1.15.36-.46.27-1.07.64-2.18.64s-1.73-.37-2.18-.64c-.37-.22-.6-.36-1.15-.36-.56 0-.78.13-1.15.36-.46.27-1.08.64-2.19.64-1.11 0-1.73-.37-2.18-.64-.37-.23-.6-.36-1.15-.36-.55 0-.78.13-1.15.36-.46.27-1.08.64-2.19.64v-2c.56 0 .78-.13 1.15-.36.46-.27 1.08-.64 2.19-.64 1.11 0 1.73.37 2.18.64.37.23.59.36 1.15.36.56 0 .78-.13 1.15-.36.46-.27 1.08-.64 2.19-.64 1.11 0 1.73.37 2.18.64.37.22.6.36 1.15.36.55 0 .78-.13 1.15-.36.45-.27 1.07-.64 2.18-.64s1.73.37 2.18.64c.37.23.59.36 1.15.36zm0-4.5c-1.11 0-1.73-.37-2.18-.64-.37-.22-.6-.36-1.15-.36-.56 0-.78.13-1.15.36-.45.27-1.07.64-2.18.64s-1.73-.37-2.18-.64c-.37-.22-.6-.36-1.15-.36-.56 0-.78.13-1.15.36-.45.27-1.07.64-2.18.64s-1.73-.37-2.18-.64c-.37-.22-.6-.36-1.15-.36-.55 0-.78.13-1.15.36-.47.27-1.09.64-2.2.64v-2c.56 0 .78-.13 1.15-.36.45-.27 1.07-.64 2.18-.64s1.73.37 2.18.64c.37.22.6.36 1.15.36.56 0 .78-.13 1.15-.36.45-.27 1.07-.64 2.18-.64s1.73.37 2.18.64c.37.22.6.36 1.15.36.55 0 .78-.13 1.15-.36.45-.27 1.07-.64 2.18-.64s1.73.37 2.18.64c.37.22.6.36 1.15.36v2zM6.67 9c.56 0 .78-.13 1.15-.36C8.28 8.37 8.9 8 10.01 8c1.11 0 1.73.37 2.18.64.37.22.6.36 1.15.36.55 0 .78-.13 1.15-.36.12-.07.26-.15.41-.23L8.48 2C6.93.45 5.5-.01 3 0v2.5c1.82-.01 2.89.39 4 1.5l1 1-3.25 3.25c.31.12.56.27.77.39.37.23.59.36 1.15.36z"/><circle cx="14.5" cy="2.5" r="2.5"/></symbol><symbol id="icon-property" viewBox="0 0 70 70"><path d="M64.782 29.797c.631-2.701.175-6.725-5.581-10.542L37.569 4.974l-.016-.013a4.047 4.047 0 0 0-2.432-.861 4 4 0 0 0-2.749.946l-12.79 8.444V4.495c0-1.104-.21-1.912-1.314-1.912H14.87c-1.104 0-1.287.807-1.287 1.912v12.956l-2.727 1.8a3.495 3.495 0 0 0-.244.175l-.119.092c-3.174 2.457-6.456 4.997-5.225 10.279.732 3.133 3.064 5.106 6.315 5.456v27.33H7.87a2 2 0 0 0 0 4h54a2 2 0 0 0 0-4h-3.287V35.246c3.193-.384 5.478-2.352 6.199-5.449zm-55.618-.908c-.657-2.819.673-3.95 3.708-6.3l21.71-14.458v-.034l.5.017.5-.017v.034l21.652 14.458c2.035 1.35 4.433 3.48 3.774 6.3-.431 1.85-1.851 2.438-3.526 2.438-.878 0-1.876-.161-2.842-.388l-19.601-12-19.592 12c-.967.227-1.937.388-2.815.388-1.675-.001-3.036-.589-3.468-2.438zM27.583 61.42V49.746a3.163 3.163 0 0 1 3.163-3.163h8.674a3.163 3.163 0 0 1 3.163 3.163V61.42c0 .412-.084.803-.228 1.163H27.811a3.122 3.122 0 0 1-.228-1.163zm16.857 1.163c.086-.375.143-.762.143-1.163V49.746a5.163 5.163 0 0 0-5.163-5.163h-8.674a5.163 5.163 0 0 0-5.163 5.163V61.42c0 .401.056.788.143 1.163H15.583V34.996c.252-.05.504-.1.77-.163a4.055 4.055 0 0 0 1.178-.483l17.495-10.72 17.496 10.72c.364.223.762.386 1.177.483.306.071.598.131.885.187v27.563H44.44z"/><path d="M31.583 54.417a1 1 0 0 0-1 1v1a1 1 0 1 0 2 0v-1a1 1 0 0 0-1-1zm-.713-18.834h9a1 1 0 1 0 0-2h-9a1 1 0 1 0 0 2zm12 2h-15a1 1 0 1 0 0 2h15a1 1 0 1 0 0-2z"/></symbol><symbol id="icon-rating" viewBox="0 0 491.52 491.52"><path d="M163.34 59.006a10.246 10.246 0 0 0-7.045-6.715L114.34 40.836 90.48 4.476c-3.78-5.77-13.34-5.77-17.12 0l-23.855 36.36-41.96 11.455c-3.33.91-5.98 3.435-7.045 6.715a10.249 10.249 0 0 0 1.75 9.57l27.215 33.93-2.075 43.44a10.241 10.241 0 0 0 13.855 10.065l40.675-15.395 40.68 15.395a10.227 10.227 0 0 0 9.645-1.29 10.246 10.246 0 0 0 4.21-8.775l-2.075-43.44 27.21-33.93a10.251 10.251 0 0 0 1.75-9.57zm-47.365 33.71a10.268 10.268 0 0 0-2.24 6.895l1.515 31.725-29.705-11.245a10.178 10.178 0 0 0-3.625-.665c-1.23 0-2.455.22-3.625.665l-29.7 11.24 1.515-31.72c.12-2.495-.68-4.95-2.24-6.895L27.995 67.941l30.64-8.365a10.245 10.245 0 0 0 5.865-4.265l17.42-26.55 17.425 26.55a10.245 10.245 0 0 0 5.865 4.265l30.635 8.365-19.87 24.775zM204.8 51.051h174.08v20.48H204.8zM204.8 102.251h286.72v20.48H204.8zM163.34 226.351a10.256 10.256 0 0 0-7.045-6.715l-41.955-11.45-23.86-36.36c-3.78-5.77-13.34-5.77-17.12 0l-23.855 36.36-41.96 11.45A10.256 10.256 0 0 0 .5 226.351a10.251 10.251 0 0 0 1.75 9.57l27.215 33.93-2.075 43.44a10.246 10.246 0 0 0 4.21 8.775 10.278 10.278 0 0 0 9.645 1.29l40.675-15.395 40.68 15.395a10.239 10.239 0 0 0 9.645-1.29 10.246 10.246 0 0 0 4.21-8.775l-2.075-43.44 27.21-33.93a10.251 10.251 0 0 0 1.75-9.57zm-47.365 33.71a10.268 10.268 0 0 0-2.24 6.895l1.515 31.725-29.705-11.245a10.178 10.178 0 0 0-3.625-.665c-1.23 0-2.455.22-3.625.665l-29.7 11.24 1.515-31.72c.12-2.495-.68-4.95-2.24-6.895l-19.875-24.775 30.64-8.36a10.245 10.245 0 0 0 5.865-4.265l17.42-26.55 17.425 26.55a10.245 10.245 0 0 0 5.865 4.265l30.635 8.36-19.87 24.775zM204.8 214.891h174.08v20.48H204.8zM204.8 266.091h286.72v20.48H204.8zM163.34 393.701a10.256 10.256 0 0 0-7.045-6.715l-41.955-11.45-23.86-36.365c-3.78-5.77-13.34-5.77-17.12 0l-23.855 36.365-41.96 11.45A10.256 10.256 0 0 0 .5 393.701a10.251 10.251 0 0 0 1.75 9.57l27.215 33.93-2.075 43.44a10.246 10.246 0 0 0 4.21 8.775 10.25 10.25 0 0 0 9.645 1.29l40.675-15.395 40.68 15.395a10.239 10.239 0 0 0 9.645-1.29 10.246 10.246 0 0 0 4.21-8.775l-2.075-43.44 27.21-33.93a10.251 10.251 0 0 0 1.75-9.57zm-47.365 33.71a10.268 10.268 0 0 0-2.24 6.895l1.515 31.725-29.705-11.245a10.178 10.178 0 0 0-3.625-.665c-1.23 0-2.455.22-3.625.665l-29.7 11.24 1.515-31.72c.12-2.495-.68-4.95-2.24-6.895l-19.875-24.775 30.64-8.36a10.245 10.245 0 0 0 5.865-4.265l17.42-26.555 17.425 26.555a10.245 10.245 0 0 0 5.865 4.265l30.635 8.36-19.87 24.775zM204.8 388.971h174.08v20.48H204.8zM204.8 440.171h286.72v20.48H204.8z"/></symbol><symbol style="enable-background:new 0 0 490 490" id="icon-ruler-triangle" viewBox="0 0 490 490"><path d="M103.531 233.426c-8.152-7.476-18.678.438-17.795 7.371v160.422c0 5.757 4.667 10.426 10.425 10.426H256.56c8.931 0 14.109-11.059 7.37-17.798L103.531 233.426zm3.054 157.367V265.967l124.808 124.826H106.585z"/><path d="M486.915 472.191 17.795 3.009C12.887-2.352.386-.933 0 10.38v469.183c0 5.758 4.667 10.426 10.425 10.426h469.12c7.221.38 14.875-9.331 7.37-17.798zM20.85 469.137V35.55l53.02 53.027-14.742 14.744 14.742 14.743 14.742-14.743 63.445 63.453-14.742 14.744 14.742 14.742 14.742-14.743 63.445 63.454-14.742 14.744 14.742 14.743 14.742-14.743 63.445 63.454-14.742 14.744 14.742 14.743 14.742-14.743 63.445 63.453-14.742 14.744 14.742 14.743 14.742-14.743 53.02 53.027H20.85z"/></symbol><symbol class="icon" id="icon-search" viewBox="0 0 1024 1024"><path d="M982.72 937.28a32 32 0 0 0-34.88-6.72 32 32 0 0 0-10.56 6.72A32 32 0 0 0 928 960a32 32 0 0 0 9.28 22.72 36.8 36.8 0 0 0 10.56 6.72 30.08 30.08 0 0 0 24.32 0 28.8 28.8 0 0 0 17.28-17.28A32 32 0 0 0 992 960a33.6 33.6 0 0 0-9.28-22.72zm-160-160a32 32 0 0 0-45.12 45.12l64 64a32 32 0 0 0 45.12-45.12zM626.88 581.76a336.64 336.64 0 1 0-45.12 45.12l99.52 99.52a32 32 0 0 0 45.12-45.12zM368 640a272 272 0 1 1 272-272 272.32 272.32 0 0 1-272 272z"/></symbol><symbol style="enable-background:new 0 0 458.624 458.624" id="icon-share" viewBox="0 0 458.624 458.624"><path d="M339.588 314.529a71.683 71.683 0 0 0-38.621 11.239l-112.682-78.67a72.036 72.036 0 0 0 2.798-19.871c0-6.896-.989-13.557-2.798-19.871l109.64-76.547c11.764 8.356 26.133 13.286 41.662 13.286 39.79 0 72.047-32.257 72.047-72.047S379.378 0 339.588 0c-39.79 0-72.047 32.257-72.047 72.047 0 5.255.578 10.373 1.646 15.308l-112.424 78.491c-10.974-6.759-23.892-10.666-37.727-10.666-39.79 0-72.047 32.257-72.047 72.047s32.256 72.047 72.047 72.047c13.834 0 26.753-3.907 37.727-10.666l113.292 79.097a72.108 72.108 0 0 0-2.514 18.872c0 39.79 32.257 72.047 72.047 72.047s72.047-32.257 72.047-72.047-32.257-72.048-72.047-72.048z"/></symbol><symbol id="icon-shower" viewBox="0 0 50 50"><path d="M22 0v7.281A17.204 17.204 0 0 1 25 7c1.027 0 2.027.11 3 .281V0Zm3 9c-6.605 0-12.129 4.273-13.594 10h27.188C37.129 13.273 31.605 9 25 9ZM10 21c-1.652 0-3 1.348-3 3s1.348 3 3 3h30c1.652 0 3-1.348 3-3s-1.348-3-3-3Zm7 9a1.999 1.999 0 1 0 0 4 1.999 1.999 0 1 0 0-4Zm8 0a1.999 1.999 0 1 0 0 4 1.999 1.999 0 1 0 0-4Zm8 0a1.999 1.999 0 1 0 0 4 1.999 1.999 0 1 0 0-4Zm-20 8a1.999 1.999 0 1 0 0 4 1.999 1.999 0 1 0 0-4Zm8 0a1.999 1.999 0 1 0 0 4 1.999 1.999 0 1 0 0-4Zm8 0a1.999 1.999 0 1 0 0 4 1.999 1.999 0 1 0 0-4Zm8 0a1.999 1.999 0 1 0 0 4 1.999 1.999 0 1 0 0-4ZM9 46a1.999 1.999 0 1 0 0 4 1.999 1.999 0 1 0 0-4Zm8 0a1.999 1.999 0 1 0 0 4 1.999 1.999 0 1 0 0-4Zm8 0a1.999 1.999 0 1 0 0 4 1.999 1.999 0 1 0 0-4Zm8 0a1.999 1.999 0 1 0 0 4 1.999 1.999 0 1 0 0-4Zm8 0a1.999 1.999 0 1 0 0 4 1.999 1.999 0 1 0 0-4Z"/></symbol><symbol class="unmute-button" id="icon-sound-off" viewBox="0 0 32 32"><g data-name="Layer 35"><path class="cls-1" d="M18 29a1 1 0 0 1-.57-.18l-10-7A1 1 0 0 1 7 21V11a1 1 0 0 1 .43-.82l10-7a1 1 0 0 1 1-.07A1 1 0 0 1 19 4v24a1 1 0 0 1-.54.89A1 1 0 0 1 18 29Zm-9-8.52 8 5.6V5.92l-8 5.6Z"/><path class="cls-1" d="M8 22H4a3 3 0 0 1-3-3v-6a3 3 0 0 1 3-3h4a1 1 0 0 1 1 1v10a1 1 0 0 1-1 1ZM4 12a1 1 0 0 0-1 1v6a1 1 0 0 0 1 1h3v-8Zm16.81.463 1.414-1.414 8.485 8.485-1.414 1.414z"/><path class="cls-1" d="m20.81 19.534 8.485-8.485 1.414 1.414-8.485 8.485z"/></g></symbol><symbol class="mute-button" style="display:block" id="icon-sound-on" viewBox="0 0 32 32"><g data-name="Layer 34"><path class="cls-1" d="M18 29a1 1 0 0 1-.57-.18l-10-7A1 1 0 0 1 7 21V11a1 1 0 0 1 .43-.82l10-7a1 1 0 0 1 1-.07A1 1 0 0 1 19 4v24a1 1 0 0 1-.54.89A1 1 0 0 1 18 29Zm-9-8.52 8 5.6V5.92l-8 5.6Z"/><path class="cls-1" d="M8 22H4a3 3 0 0 1-3-3v-6a3 3 0 0 1 3-3h4a1 1 0 0 1 1 1v10a1 1 0 0 1-1 1ZM4 12a1 1 0 0 0-1 1v6a1 1 0 0 0 1 1h3v-8Zm14 9v-2a3 3 0 0 0 2.12-5.12l1.42-1.42A5 5 0 0 1 18 21Zm8.48 4.48a1 1 0 0 1-.71-.29 1 1 0 0 1 0-1.42 11 11 0 0 0 0-15.54 1 1 0 1 1 1.42-1.42 13 13 0 0 1 0 18.38 1 1 0 0 1-.71.29Z"/><path class="cls-1" d="M23.65 22.65a1 1 0 0 1-.7-.29A1 1 0 0 1 23 21a7 7 0 0 0 0-9.9 1 1 0 0 1 1.41-1.41 9 9 0 0 1 0 12.72 1 1 0 0 1-.76.24Z"/></g></symbol><symbol id="icon-square" viewBox="0 0 32 32"><path d="M28 24v4h-4v-1H8v1H4v-4h1V8H4V4h4v1h16V4h4v4h-1v16h1zM5 27h2v-2H5v2zM7 5H5v2h2V5zm17 2H8v1H7v16h1v1h16v-1h1V8h-1V7zm3-2h-2v2h2V5zm-2 20v2h2v-2h-2z"/></symbol><symbol id="icon-tiktok" viewBox="0 0 27.801 31.998"><path d="M14.603.027C16.348 0 18.083.016 19.816 0c.105 2.041.84 4.12 2.333 5.563 1.491 1.479 3.6 2.156 5.652 2.385v5.369c-1.923-.063-3.855-.463-5.6-1.291-.76-.344-1.468-.787-2.16-1.24-.01 3.896.015 7.787-.026 11.667-.104 1.864-.719 3.719-1.803 5.255-1.744 2.557-4.77 4.224-7.88 4.276-1.907.109-3.812-.411-5.437-1.369C2.202 29.027.307 26.12.031 23a22.3 22.3 0 0 1-.016-1.984c.24-2.537 1.495-4.964 3.443-6.615 2.208-1.923 5.301-2.839 8.197-2.297.027 1.975-.052 3.948-.052 5.923-1.323-.428-2.869-.308-4.025.495a4.618 4.618 0 0 0-1.819 2.333c-.276.676-.197 1.427-.18 2.145.316 2.188 2.42 4.027 4.666 3.828 1.49-.016 2.916-.88 3.692-2.145.251-.443.532-.896.547-1.417.131-2.385.08-4.76.095-7.145.011-5.375-.016-10.735.025-16.093z"/></symbol><symbol id="icon-tripadvisor" viewBox="0 0 512 512"><path d="M128 159.234H16A15.975 15.975 0 0 0 .64 170.786c-1.984 6.88.8 14.208 6.848 17.984.128.096 11.072 7.232 19.552 20.224C9.536 231.234 0 258.562 0 287.234c0 70.592 57.408 128 128 128s128-57.408 128-128-57.408-128-128-128zm0 224c-52.928 0-96-43.072-96-96 0-24.384 9.248-47.52 25.984-65.12a15.974 15.974 0 0 0 3.008-17.632 94.747 94.747 0 0 0-7.328-13.248H128c52.928 0 96 43.072 96 96s-43.072 96-96 96z"/><path d="M301.536 338.306c-7.136-5.152-17.12-3.68-22.368 3.552l-22.336 30.784-24.352-31.232c-5.44-6.976-15.52-8.256-22.464-2.784-6.944 5.44-8.192 15.488-2.752 22.464l37.44 48a16.03 16.03 0 0 0 12.608 6.144h.288c5.024-.096 9.728-2.528 12.64-6.592l34.816-48c5.184-7.136 3.648-17.152-3.52-22.336zm125.248-174.88c-97.344-88.864-244.224-88.896-341.568 0-6.528 5.952-7.008 16.064-1.024 22.592 5.952 6.56 16.064 6.976 22.592 1.024 85.088-77.664 213.376-77.664 298.432 0A15.91 15.91 0 0 0 416 191.234c4.352 0 8.672-1.76 11.808-5.216 5.984-6.528 5.504-16.64-1.024-22.592zM128 223.234c-35.296 0-64 28.704-64 64s28.704 64 64 64 64-28.704 64-64-28.704-64-64-64zm0 96c-17.632 0-32-14.336-32-32 0-17.632 14.368-32 32-32s32 14.368 32 32c0 17.664-14.368 32-32 32z"/><path d="M128.64 271.234h-.32c-8.832 0-15.84 7.168-15.84 16s7.328 16 16.16 16 16-7.168 16-16-7.168-16-16-16zm356.288-62.24c8.48-12.96 19.488-20.192 19.584-20.224a15.984 15.984 0 0 0 6.848-17.984c-1.952-6.848-8.224-11.552-15.36-11.552H384c-70.592 0-128 57.408-128 128s57.408 128 128 128 128-57.408 128-128c0-28.64-9.536-56-27.072-78.24zM384 383.234c-52.928 0-96-43.072-96-96s43.072-96 96-96h74.336a94.747 94.747 0 0 0-7.328 13.248c-2.656 5.952-1.504 12.928 3.008 17.632C470.784 239.746 480 262.85 480 287.234c0 52.928-43.072 96-96 96z"/><path d="M384 223.234c-35.296 0-64 28.704-64 64s28.704 64 64 64 64-28.704 64-64-28.704-64-64-64zm0 96c-17.664 0-32-14.336-32-32 0-17.632 14.336-32 32-32s32 14.368 32 32c0 17.664-14.336 32-32 32z"/><path d="M384.64 271.234h-.32c-8.832 0-15.84 7.168-15.84 16s7.36 16 16.16 16c8.832 0 16-7.168 16-16s-7.168-16-16-16z"/></symbol><symbol id="icon-twitter-colored" viewBox="0 0 128 128"><g clip-rule="evenodd"><path fill="none" d="M0 0h128v128H0z"/><path d="M128 23.294a51.28 51.28 0 0 1-15.079 4.237c5.424-3.328 9.587-8.606 11.548-14.892a51.718 51.718 0 0 1-16.687 6.526c-4.778-5.231-11.608-8.498-19.166-8.498-14.493 0-26.251 12.057-26.251 26.927 0 2.111.225 4.16.676 6.133-21.824-1.126-41.17-11.835-54.131-28.145a27.422 27.422 0 0 0-3.554 13.552c0 9.338 4.636 17.581 11.683 22.412-4.297-.131-8.355-1.356-11.901-3.359v.331c0 13.051 9.053 23.937 21.074 26.403-2.201.632-4.523.948-6.92.948-1.69 0-3.343-.162-4.944-.478 3.343 10.694 13.035 18.483 24.53 18.691-8.986 7.227-20.315 11.533-32.614 11.533-2.119 0-4.215-.123-6.266-.37 11.623 7.627 25.432 12.088 40.255 12.088 48.309 0 74.717-41.026 74.717-76.612a89.39 89.39 0 0 0-.068-3.49A53.862 53.862 0 0 0 128 23.294" fill="#00AAEC" fill-rule="evenodd"/></g></symbol><symbol id="icon-twitter" viewBox="0 0 135.467 110.067"><path d="M135.467 13.03c-5.038 2.21-10.406 3.675-16.002 4.386 5.757-3.438 10.151-8.84 12.217-15.35-5.368 3.2-11.294 5.46-17.61 6.722A27.83 27.83 0 0 0 93.784 0C78.41 0 66.032 12.48 66.032 27.78c0 2.2.186 4.317.643 6.332C43.586 32.986 23.156 21.92 9.432 5.063 7.036 9.22 5.63 13.978 5.63 19.101c0 9.618 4.953 18.144 12.336 23.08-4.462-.085-8.839-1.38-12.547-3.42v.304c0 13.496 9.626 24.706 22.25 27.288-2.26.618-4.724.915-7.281.915-1.778 0-3.573-.102-5.258-.474 3.598 10.998 13.81 19.083 25.95 19.346A55.802 55.802 0 0 1 6.646 97.985c-2.277 0-4.462-.102-6.646-.381 12.302 7.933 26.882 12.463 42.604 12.463 51.105 0 79.045-42.334 79.045-79.028a70 70 0 0 0-.102-3.59c5.512-3.912 10.144-8.797 13.92-14.419z"/></symbol><symbol id="icon-update" viewBox="0 0 48 48"><g data-name="Layer 2"><path fill="none" d="M0 0h48v48H0z" data-name="invisible box"/><g data-name="icons Q2"><path d="M2 24a22 22 0 0 0 41.7 9.7 2 2 0 0 0-.5-2.6 2 2 0 0 0-3 .7A17.8 17.8 0 0 1 24 42a18 18 0 1 1 13.4-30h-5.3a2.1 2.1 0 0 0-2.1 1.7 2 2 0 0 0 2 2.3h10a2 2 0 0 0 2-2V4.1A2.1 2.1 0 0 0 42.3 2 2 2 0 0 0 40 4v4.9A22 22 0 0 0 2 24Z"/><path d="M34 32a1.7 1.7 0 0 1-1-.3l-11-6.6V14a2 2 0 0 1 4 0v8.9l9 5.4a1.9 1.9 0 0 1 .7 2.7 1.9 1.9 0 0 1-1.7 1Z"/></g></g></symbol><symbol style="enable-background:new 0 0 285.5 285.5" id="icon-user" viewBox="0 0 285.5 285.5"><path d="M142.75 125.5c34.601 0 62.751-28.149 62.751-62.75S177.351 0 142.75 0 79.999 28.149 79.999 62.75s28.15 62.75 62.751 62.75zm0-95.5c18.059 0 32.751 14.691 32.751 32.75S160.809 95.5 142.75 95.5s-32.751-14.691-32.751-32.75S124.691 30 142.75 30zm0 125.5c-63.411 0-115 51.589-115 115 0 8.284 6.716 15 15 15h200c8.284 0 15-6.716 15-15 0-63.411-51.589-115-115-115zm-83.675 100c7.106-39.739 41.923-70 83.675-70s76.569 30.261 83.675 70H59.075z"/></symbol><symbol style="clip-rule:evenodd;fill-rule:evenodd;image-rendering:optimizeQuality;shape-rendering:geometricPrecision;text-rendering:geometricPrecision" id="icon-youtube-colored" viewBox="0 0 1280.003 1536.001"><g id="Layer_x0020_1" transform="translate(-383.997 -255.999)"><g id="_251945080"><path d="M1664 1141.42v452.993c0 108.669-94.252 197.587-209.41 197.587H593.407c-115.243 0-209.41-88.918-209.41-197.587V1141.42c0-108.676 94.167-197.588 209.41-197.588h861.183c115.158 0 209.41 88.912 209.41 197.588z" id="_251945488" style="fill:#d42927"/><path fill="#fffffe" id="_251945728" d="M473.002 1095.34v69.5l88.835.24v478.5h88.997v-477.16h106.752v-70.68z"/><path fill="#fffffe" d="m740.157 1237.5.26 252.503c.085 38.739-.92 67.584.339 80.743 2.153 23.173 1.324 50.155 22.828 65.581 40.08 28.84 116.838-4.33 135.997-45.589l-.17 52.671 71.509.085-.084-405.995h-89.004v254.825c0 36.846 2.244 55.254-.084 61.76-7.251 19.733-39.743 40.747-52.503 2.16-2.086-6.744-.254-27.159-.254-62.166l-.32-256.579h-88.514z" id="_251945536"/><path fill="#fffffe" d="m1024.26 1095.83-.43 544.258 73.087-1.089 6.658-33.919c93.418 85.757 152.173 27.007 151.999-75.736l-.146-212.179c-.085-80.748-60.588-129.15-142.678-63.828l.423-157.676-88.912.17zm87.4 210.753c0-17.58 17.513-32.002 38.848-32.002 21.503 0 38.999 14.422 38.999 32.002v238.08c0 17.58-17.496 31.918-38.999 31.918-21.335 0-38.848-14.339-38.848-31.918z" id="_251945296"/><path fill="#fffffe" d="M1357.91 1235.09c-16.913 12.162-29.825 28.416-37.336 50.326-7.57 21.824-11.326 51.673-11.326 89.668v126.418c0 210.239 255.339 180.504 224.922-.34l-66.756.425a274.042 274.042 0 0 0-.17 9.003v37.251c0 19.902-16.49 36.072-36.5 36.072h-13.08c-19.987 0-36.502-16.17-36.502-36.072v-98.007h152.831v-57.491c0-42.01-1.087-84.014-4.499-108.1-10.987-75.99-117.656-88.084-171.585-49.153zm70.016 55.92c21.824 0 39.748 17.833 39.748 39.572l-.92 48.917h-84.328l.405-48.917c0-21.74 17.834-39.573 39.676-39.573h5.419z" id="_251944744"/><path fill="#d42927" id="_251945416" d="m694.162 533.907.176 323.437h93.587l.085-323.582 110.573-277.187H796.245l-58.839 205.847-59.584-206.423H576.488Z"/><path fill="#d42927" d="M901.244 481.411c-6.652 22.846-10.088 54.42-10.088 94.93v111.747c0 36.906 1.748 64.657 5.504 83.156 3.755 18.432 9.917 34.263 18.667 47.253 8.66 13.014 20.846 22.846 36.586 29.244 15.657 6.598 34.754 9.67 57.346 9.67 20.241 0 38.164-3.652 53.82-11.333 15.512-7.486 28.247-19.242 38.165-35.068 10.093-15.916 16.575-32.92 19.587-51.268 3.006-18.239 4.584-47.078 4.584-86.161V566.829c0-30.913-1.663-53.827-4.929-69.078-3.326-14.997-9.403-29.674-18.407-43.927-8.835-14.247-21.505-25.749-38.08-34.579-16.425-8.835-36.078-13.334-59.01-13.334-27.327 0-49.75 6.93-67.238 20.755-17.58 13.763-29.765 32.002-36.507 54.745zm67.584 262.505V519.34c0-23.832 17.84-43.354 39.513-43.354 21.654 0 39.318 19.522 39.318 43.354v224.576c0 23.91-17.664 43.413-39.319 43.413-21.673 0-39.512-19.503-39.512-43.413z" id="_251944864"/><path fill="#d42927" d="M1181.59 422.25v284.583c0 36.247.66 60.418 1.747 72.664 1.089 12.16 3.907 23.832 8.49 35.177 4.59 11.072 11.671 20.161 21.42 26.989 9.494 6.76 21.764 10.093 36.416 10.093 12.844 0 24.171-3.417 34.095-10.583 9.832-7.166 18.153-17.749 24.914-31.917l-1.663 34.904h99.242V422.25h-78.082v328.34c0 17.834-14.677 32.324-32.595 32.324-17.815 0-32.491-14.49-32.491-32.323V422.25Z" id="_251944672"/></g></g><path style="fill:none" d="M-383.997-255.999h2048v2048h-2048z" id="path265"/></symbol><symbol id="icon-youtube" viewBox="0 0 24 24"><path d="m23.469 5.929.03.196a3.043 3.043 0 0 0-2.068-2.112l-.021-.005c-1.871-.508-9.4-.508-9.4-.508s-7.51-.01-9.4.508A3.044 3.044 0 0 0 .527 6.104l-.005.021c-.699 3.651-.704 8.038.031 11.947l-.031-.198a3.043 3.043 0 0 0 2.068 2.112l.021.005c1.869.509 9.4.509 9.4.509s7.509 0 9.4-.509a3.043 3.043 0 0 0 2.084-2.096l.005-.021c.318-1.698.5-3.652.5-5.648l-.001-.221.001-.23c0-1.997-.182-3.951-.531-5.846zM9.608 15.651V8.358l6.266 3.652z"/></symbol></svg>